<svg viewBox="0 0 24 24" fill="currentColor" xmlns="http://www.w3.org/2000/svg"><path d="M11.724 1.040 C 11.486 1.119,11.304 1.255,11.173 1.451 C 11.003 1.708,11.004 1.700,11.004 3.000 C 11.004 4.300,11.003 4.292,11.173 4.549 C 11.281 4.710,11.417 4.825,11.606 4.913 C 11.733 4.973,11.775 4.980,12.000 4.980 C 12.225 4.980,12.267 4.973,12.394 4.913 C 12.583 4.825,12.719 4.710,12.827 4.549 C 12.997 4.292,12.996 4.300,12.996 3.000 C 12.996 1.700,12.997 1.708,12.827 1.451 C 12.719 1.289,12.582 1.174,12.394 1.088 C 12.279 1.035,12.211 1.021,12.036 1.015 C 11.903 1.011,11.783 1.021,11.724 1.040 M4.632 3.981 C 4.317 4.082,4.067 4.338,3.974 4.654 C 3.902 4.901,3.941 5.220,4.070 5.430 C 4.105 5.486,4.965 6.365,5.981 7.383 L 7.829 9.234 7.695 9.462 C 6.779 11.018,6.778 12.980,7.691 14.531 C 8.109 15.242,8.758 15.891,9.469 16.309 C 11.020 17.222,12.982 17.221,14.538 16.305 L 14.766 16.171 16.617 18.019 C 17.635 19.035,18.514 19.895,18.570 19.930 C 18.850 20.102,19.278 20.103,19.568 19.933 C 19.685 19.864,19.867 19.681,19.939 19.559 C 20.111 19.270,20.098 18.833,19.910 18.545 C 19.808 18.388,5.572 4.157,5.430 4.070 C 5.215 3.938,4.881 3.901,4.632 3.981 M18.797 3.973 C 18.728 3.992,18.614 4.044,18.545 4.089 C 18.476 4.134,18.061 4.531,17.623 4.971 C 16.752 5.847,16.724 5.884,16.679 6.200 C 16.634 6.515,16.735 6.819,16.958 7.042 C 17.180 7.265,17.488 7.365,17.808 7.320 C 18.115 7.277,18.157 7.245,19.029 6.377 C 19.469 5.939,19.866 5.524,19.911 5.455 C 20.101 5.163,20.112 4.737,19.938 4.440 C 19.868 4.321,19.685 4.136,19.572 4.070 C 19.352 3.941,19.055 3.904,18.797 3.973 M12.131 7.077 C 11.956 7.136,11.853 7.207,11.704 7.368 C 11.359 7.740,11.364 8.314,11.714 8.698 C 11.889 8.889,12.048 8.962,12.449 9.035 C 13.165 9.164,13.658 9.417,14.128 9.893 C 14.599 10.371,14.837 10.842,14.965 11.551 C 15.011 11.804,15.046 11.926,15.101 12.031 C 15.192 12.200,15.383 12.381,15.570 12.472 C 15.696 12.534,15.731 12.540,15.973 12.540 C 16.225 12.540,16.245 12.536,16.404 12.458 C 16.727 12.299,16.935 11.999,16.961 11.656 C 16.986 11.327,16.844 10.664,16.640 10.153 C 16.056 8.691,14.792 7.567,13.294 7.177 C 12.740 7.033,12.357 7.000,12.131 7.077 M13.150 14.767 C 12.809 14.923,12.306 15.013,11.883 14.994 C 11.097 14.958,10.444 14.670,9.887 14.113 C 9.619 13.845,9.459 13.625,9.309 13.319 C 8.935 12.557,8.902 11.643,9.221 10.875 L 9.295 10.699 11.296 12.699 L 13.297 14.700 13.150 14.767 M1.872 11.016 C 1.678 11.045,1.601 11.074,1.452 11.173 C 1.290 11.281,1.175 11.416,1.087 11.606 C 1.027 11.733,1.020 11.775,1.020 12.000 C 1.020 12.225,1.027 12.267,1.087 12.394 C 1.175 12.583,1.290 12.719,1.451 12.827 C 1.708 12.997,1.700 12.996,3.000 12.996 C 4.300 12.996,4.292 12.997,4.549 12.827 C 4.710 12.719,4.825 12.583,4.913 12.394 C 4.973 12.267,4.980 12.225,4.980 12.000 C 4.980 11.775,4.973 11.733,4.913 11.606 C 4.825 11.417,4.710 11.281,4.549 11.174 C 4.299 11.008,4.310 11.009,3.096 11.002 C 2.495 10.999,1.945 11.005,1.872 11.016 M19.872 11.016 C 19.678 11.045,19.601 11.074,19.452 11.173 C 19.290 11.281,19.175 11.416,19.087 11.606 C 19.027 11.733,19.020 11.775,19.020 12.000 C 19.020 12.225,19.027 12.267,19.087 12.394 C 19.175 12.583,19.290 12.719,19.451 12.827 C 19.708 12.997,19.700 12.996,21.000 12.996 C 22.300 12.996,22.292 12.997,22.549 12.827 C 22.710 12.719,22.825 12.583,22.913 12.394 C 22.973 12.267,22.980 12.225,22.980 12.000 C 22.980 11.775,22.973 11.733,22.913 11.606 C 22.825 11.417,22.710 11.281,22.549 11.174 C 22.299 11.008,22.310 11.009,21.096 11.002 C 20.495 10.999,19.945 11.005,19.872 11.016 M6.177 16.680 C 5.887 16.723,5.834 16.765,4.971 17.623 C 4.531 18.061,4.134 18.476,4.089 18.545 C 3.896 18.842,3.887 19.261,4.070 19.572 C 4.136 19.685,4.321 19.868,4.441 19.939 C 4.730 20.111,5.167 20.098,5.455 19.911 C 5.524 19.866,5.939 19.469,6.377 19.029 C 7.248 18.153,7.276 18.116,7.321 17.800 C 7.366 17.485,7.265 17.181,7.042 16.958 C 6.817 16.733,6.500 16.631,6.177 16.680 M11.724 19.040 C 11.486 19.119,11.304 19.255,11.173 19.451 C 11.003 19.708,11.004 19.700,11.004 21.000 C 11.004 22.300,11.003 22.292,11.173 22.549 C 11.281 22.710,11.417 22.825,11.606 22.913 C 11.733 22.973,11.775 22.980,12.000 22.980 C 12.225 22.980,12.267 22.973,12.394 22.913 C 12.583 22.825,12.719 22.710,12.827 22.549 C 12.997 22.292,12.996 22.300,12.996 21.000 C 12.996 19.700,12.997 19.708,12.827 19.451 C 12.719 19.289,12.582 19.174,12.394 19.088 C 12.279 19.035,12.211 19.021,12.036 19.015 C 11.903 19.011,11.783 19.021,11.724 19.040 " stroke="none" fill-rule="evenodd"/></svg>