<svg viewBox="0 0 24 24" fill="currentColor" xmlns="http://www.w3.org/2000/svg"><path d="M2.652 1.835 C 2.222 1.895,1.775 2.008,1.553 2.112 C 1.368 2.199,1.217 2.353,1.117 2.555 C 0.819 3.159,1.173 3.862,1.836 3.982 C 1.999 4.011,2.120 3.996,2.473 3.904 C 3.075 3.746,3.532 3.759,4.104 3.950 C 4.805 4.184,5.504 4.716,6.109 5.474 C 6.435 5.883,6.622 5.988,7.020 5.988 C 7.211 5.987,7.254 5.979,7.392 5.914 C 7.479 5.873,7.631 5.767,7.736 5.674 C 8.035 5.410,8.314 5.221,8.689 5.031 C 9.636 4.550,10.545 4.456,11.619 4.729 C 11.858 4.790,11.947 4.802,12.073 4.792 C 12.483 4.759,12.838 4.473,12.951 4.084 C 13.010 3.881,12.987 3.556,12.901 3.377 C 12.752 3.069,12.535 2.912,12.096 2.795 C 11.230 2.563,10.347 2.524,9.459 2.678 C 8.748 2.802,7.960 3.106,7.318 3.504 L 7.136 3.616 6.934 3.421 C 6.087 2.602,5.052 2.054,4.008 1.869 C 3.648 1.805,2.987 1.789,2.652 1.835 M10.829 6.817 C 10.316 6.863,9.649 7.035,9.447 7.174 C 9.294 7.279,9.170 7.429,9.089 7.605 C 8.953 7.902,8.994 8.294,9.190 8.574 C 9.355 8.810,9.633 8.969,9.926 8.994 C 10.044 9.004,10.139 8.989,10.411 8.919 C 10.810 8.816,11.143 8.783,11.467 8.812 C 12.036 8.864,12.647 9.123,13.178 9.539 C 13.443 9.747,13.886 10.187,14.072 10.428 C 14.270 10.685,14.401 10.812,14.538 10.880 C 14.721 10.970,14.862 10.999,15.068 10.987 C 15.412 10.967,15.630 10.824,15.943 10.412 C 16.116 10.184,16.554 9.749,16.822 9.539 C 17.353 9.123,17.964 8.864,18.533 8.812 C 18.857 8.783,19.190 8.816,19.589 8.919 C 19.970 9.017,20.116 9.019,20.354 8.929 C 20.750 8.780,20.991 8.414,20.986 7.968 C 20.984 7.795,20.972 7.740,20.911 7.605 C 20.731 7.214,20.451 7.048,19.717 6.900 C 18.438 6.642,17.183 6.902,16.020 7.667 C 15.710 7.871,15.389 8.118,15.162 8.327 L 15.000 8.476 14.838 8.327 C 14.478 7.995,13.918 7.599,13.488 7.373 C 12.675 6.944,11.698 6.740,10.829 6.817 M8.916 13.036 C 8.631 13.068,8.202 13.169,7.944 13.265 C 7.454 13.448,7.048 13.694,6.396 14.203 C 5.761 14.700,5.542 14.826,5.124 14.931 C 4.846 15.001,4.330 15.018,4.032 14.966 C 3.559 14.883,3.277 14.747,2.820 14.377 C 2.688 14.271,2.514 14.151,2.434 14.111 C 1.940 13.863,1.353 14.070,1.102 14.579 C 1.025 14.736,1.020 14.762,1.020 14.987 C 1.020 15.399,1.113 15.564,1.540 15.913 C 2.479 16.680,3.331 16.992,4.488 16.992 C 5.436 16.992,6.192 16.773,6.946 16.279 C 7.077 16.194,7.357 15.989,7.568 15.824 C 8.230 15.307,8.469 15.168,8.873 15.067 C 9.048 15.023,9.153 15.013,9.492 15.013 C 9.962 15.012,10.195 15.051,10.492 15.179 C 10.738 15.286,10.881 15.383,11.380 15.785 C 12.066 16.337,12.521 16.610,13.028 16.775 C 13.964 17.079,15.174 17.063,16.056 16.735 C 16.546 16.552,16.952 16.306,17.604 15.797 C 18.239 15.299,18.462 15.172,18.870 15.070 C 19.155 14.999,19.669 14.982,19.968 15.034 C 20.441 15.117,20.723 15.253,21.180 15.623 C 21.312 15.729,21.486 15.849,21.566 15.889 C 22.060 16.137,22.647 15.930,22.898 15.421 C 22.976 15.262,22.980 15.240,22.980 15.001 C 22.980 14.774,22.973 14.733,22.913 14.605 C 22.816 14.397,22.755 14.328,22.458 14.085 C 21.521 13.320,20.668 13.008,19.512 13.008 C 18.750 13.008,18.118 13.149,17.511 13.455 C 17.183 13.620,16.915 13.800,16.428 14.180 C 15.546 14.869,15.259 14.988,14.484 14.988 C 14.040 14.988,13.798 14.946,13.508 14.821 C 13.262 14.714,13.119 14.617,12.620 14.215 C 11.629 13.417,11.025 13.139,10.051 13.033 C 9.778 13.004,9.190 13.005,8.916 13.036 M8.916 19.036 C 8.631 19.068,8.202 19.169,7.944 19.265 C 7.454 19.448,7.048 19.694,6.396 20.203 C 5.761 20.700,5.542 20.826,5.124 20.931 C 4.846 21.001,4.330 21.018,4.032 20.966 C 3.559 20.883,3.277 20.747,2.820 20.377 C 2.688 20.271,2.514 20.151,2.434 20.111 C 1.940 19.863,1.353 20.070,1.102 20.579 C 1.025 20.736,1.020 20.762,1.020 20.987 C 1.020 21.399,1.113 21.564,1.540 21.913 C 2.479 22.680,3.331 22.992,4.488 22.992 C 5.436 22.992,6.192 22.773,6.946 22.279 C 7.077 22.194,7.357 21.989,7.568 21.824 C 8.230 21.307,8.469 21.168,8.873 21.067 C 9.048 21.023,9.153 21.013,9.492 21.013 C 9.962 21.012,10.195 21.051,10.492 21.179 C 10.738 21.286,10.881 21.383,11.380 21.785 C 12.066 22.337,12.521 22.610,13.028 22.775 C 13.964 23.079,15.174 23.063,16.056 22.735 C 16.546 22.552,16.952 22.306,17.604 21.797 C 18.239 21.299,18.462 21.172,18.870 21.070 C 19.155 20.999,19.669 20.982,19.968 21.034 C 20.441 21.117,20.723 21.253,21.180 21.623 C 21.312 21.729,21.486 21.849,21.566 21.889 C 22.060 22.137,22.647 21.930,22.898 21.421 C 22.976 21.262,22.980 21.240,22.980 21.001 C 22.980 20.774,22.973 20.733,22.913 20.605 C 22.816 20.397,22.755 20.328,22.458 20.085 C 21.521 19.320,20.668 19.008,19.512 19.008 C 18.750 19.008,18.118 19.149,17.511 19.455 C 17.183 19.620,16.915 19.800,16.428 20.180 C 15.546 20.869,15.259 20.988,14.484 20.988 C 14.040 20.988,13.798 20.946,13.508 20.821 C 13.262 20.714,13.119 20.617,12.620 20.215 C 11.629 19.417,11.025 19.139,10.051 19.033 C 9.778 19.004,9.190 19.005,8.916 19.036 " stroke="none" fill-rule="evenodd" /></svg>