<svg viewBox="0 0 24 24" fill="currentColor" xmlns="http://www.w3.org/2000/svg"><path d="M8.916 4.036 C 8.631 4.068,8.202 4.169,7.944 4.265 C 7.454 4.448,7.048 4.694,6.396 5.203 C 5.761 5.700,5.542 5.826,5.124 5.931 C 4.846 6.001,4.330 6.018,4.032 5.966 C 3.559 5.883,3.277 5.747,2.820 5.377 C 2.688 5.271,2.514 5.151,2.434 5.111 C 1.940 4.863,1.353 5.070,1.102 5.579 C 1.025 5.736,1.020 5.762,1.020 5.987 C 1.020 6.399,1.113 6.564,1.540 6.913 C 2.479 7.680,3.331 7.992,4.488 7.992 C 5.436 7.992,6.192 7.773,6.946 7.279 C 7.077 7.194,7.357 6.989,7.568 6.824 C 8.230 6.307,8.469 6.168,8.873 6.067 C 9.048 6.023,9.153 6.013,9.492 6.013 C 9.962 6.012,10.195 6.051,10.492 6.179 C 10.738 6.286,10.881 6.383,11.380 6.785 C 12.066 7.337,12.521 7.610,13.028 7.775 C 13.964 8.079,15.174 8.063,16.056 7.735 C 16.546 7.552,16.952 7.306,17.604 6.797 C 18.239 6.299,18.462 6.172,18.870 6.070 C 19.155 5.999,19.669 5.982,19.968 6.034 C 20.441 6.117,20.723 6.253,21.180 6.623 C 21.312 6.729,21.486 6.849,21.566 6.889 C 22.060 7.137,22.647 6.930,22.898 6.421 C 22.976 6.262,22.980 6.240,22.980 6.001 C 22.980 5.774,22.973 5.733,22.913 5.605 C 22.816 5.397,22.755 5.328,22.458 5.085 C 21.521 4.320,20.668 4.008,19.512 4.008 C 18.750 4.008,18.118 4.149,17.511 4.455 C 17.183 4.620,16.915 4.800,16.428 5.180 C 15.546 5.869,15.259 5.988,14.484 5.988 C 14.040 5.988,13.798 5.946,13.508 5.821 C 13.262 5.714,13.119 5.617,12.620 5.215 C 11.629 4.417,11.025 4.139,10.051 4.033 C 9.778 4.004,9.190 4.005,8.916 4.036 M8.916 10.036 C 8.631 10.068,8.202 10.169,7.944 10.265 C 7.454 10.448,7.048 10.694,6.396 11.203 C 5.761 11.700,5.542 11.826,5.124 11.931 C 4.846 12.001,4.330 12.018,4.032 11.966 C 3.559 11.883,3.277 11.747,2.820 11.377 C 2.688 11.271,2.514 11.151,2.434 11.111 C 1.940 10.863,1.353 11.070,1.102 11.579 C 1.025 11.736,1.020 11.762,1.020 11.987 C 1.020 12.399,1.113 12.564,1.540 12.913 C 2.479 13.680,3.331 13.992,4.488 13.992 C 5.436 13.992,6.192 13.773,6.946 13.279 C 7.077 13.194,7.357 12.989,7.568 12.824 C 8.230 12.307,8.469 12.168,8.873 12.067 C 9.048 12.023,9.153 12.013,9.492 12.013 C 9.962 12.012,10.195 12.051,10.492 12.179 C 10.738 12.286,10.881 12.383,11.380 12.785 C 12.066 13.337,12.521 13.610,13.028 13.775 C 13.964 14.079,15.174 14.063,16.056 13.735 C 16.546 13.552,16.952 13.306,17.604 12.797 C 18.239 12.299,18.462 12.172,18.870 12.070 C 19.155 11.999,19.669 11.982,19.968 12.034 C 20.441 12.117,20.723 12.253,21.180 12.623 C 21.312 12.729,21.486 12.849,21.566 12.889 C 22.060 13.137,22.647 12.930,22.898 12.421 C 22.976 12.262,22.980 12.240,22.980 12.001 C 22.980 11.774,22.973 11.733,22.913 11.605 C 22.816 11.397,22.755 11.328,22.458 11.085 C 21.521 10.320,20.668 10.008,19.512 10.008 C 18.750 10.008,18.118 10.149,17.511 10.455 C 17.183 10.620,16.915 10.800,16.428 11.180 C 15.546 11.869,15.259 11.988,14.484 11.988 C 14.040 11.988,13.798 11.946,13.508 11.821 C 13.262 11.714,13.119 11.617,12.620 11.215 C 11.629 10.417,11.025 10.139,10.051 10.033 C 9.778 10.004,9.190 10.005,8.916 10.036 M8.916 16.036 C 8.631 16.068,8.202 16.169,7.944 16.265 C 7.454 16.448,7.048 16.694,6.396 17.203 C 5.761 17.700,5.542 17.826,5.124 17.931 C 4.846 18.001,4.330 18.018,4.032 17.966 C 3.559 17.883,3.277 17.747,2.820 17.377 C 2.688 17.271,2.514 17.151,2.434 17.111 C 1.940 16.863,1.353 17.070,1.102 17.579 C 1.025 17.736,1.020 17.762,1.020 17.987 C 1.020 18.399,1.113 18.564,1.540 18.913 C 2.479 19.680,3.331 19.992,4.488 19.992 C 5.436 19.992,6.192 19.773,6.946 19.279 C 7.077 19.194,7.357 18.989,7.568 18.824 C 8.230 18.307,8.469 18.168,8.873 18.067 C 9.048 18.023,9.153 18.013,9.492 18.013 C 9.962 18.012,10.195 18.051,10.492 18.179 C 10.738 18.286,10.881 18.383,11.380 18.785 C 12.066 19.337,12.521 19.610,13.028 19.775 C 13.964 20.079,15.174 20.063,16.056 19.735 C 16.546 19.552,16.952 19.306,17.604 18.797 C 18.239 18.299,18.462 18.172,18.870 18.070 C 19.155 17.999,19.669 17.982,19.968 18.034 C 20.441 18.117,20.723 18.253,21.180 18.623 C 21.312 18.729,21.486 18.849,21.566 18.889 C 22.060 19.137,22.647 18.930,22.898 18.421 C 22.976 18.262,22.980 18.240,22.980 18.001 C 22.980 17.774,22.973 17.733,22.913 17.605 C 22.816 17.397,22.755 17.328,22.458 17.085 C 21.521 16.320,20.668 16.008,19.512 16.008 C 18.750 16.008,18.118 16.149,17.511 16.455 C 17.183 16.620,16.915 16.800,16.428 17.180 C 15.546 17.869,15.259 17.988,14.484 17.988 C 14.040 17.988,13.798 17.946,13.508 17.821 C 13.262 17.714,13.119 17.617,12.620 17.215 C 11.629 16.417,11.025 16.139,10.051 16.033 C 9.778 16.004,9.190 16.005,8.916 16.036 " stroke="none" fill-rule="evenodd" /></svg>