<svg xmlns="http://www.w3.org/2000/svg" viewBox="0 0 32 32">
  <g clip-path="url(#a)">
    <path fill="url(#b)" d="M16 32c8.837 0 16-7.163 16-16S24.837 0 16 0 0 7.163 0 16s7.163 16 16 16Z"/>
    <path fill="#fff" d="M19.907 10.813c2.343 0 3.78 1.571 3.78 4.087v6.287h-1.516v-5.934c0-1.965-.984-3.065-2.638-3.065-1.536 0-2.816 1.14-2.816 3.144v5.855h-1.496v-5.973c0-1.906-1.005-3.026-2.62-3.026-1.614 0-2.835 1.336-2.835 3.203v5.796H8.25V11.03h1.516v1.71c.67-1.003 1.575-1.927 3.289-1.927 1.654 0 2.717.885 3.268 2.024.729-1.12 1.812-2.024 3.584-2.024Z"/>
  </g>
  <defs>
    <radialGradient id="b" cx="0" cy="0" r="1" gradientTransform="translate(13.44 3.84) scale(23.68)" gradientUnits="userSpaceOnUse">
      <stop stop-color="#08C5A3"/>
      <stop offset="1" stop-color="#08A9C5"/>
    </radialGradient>
    <clipPath id="a">
      <path fill="#fff" d="M0 0h32v32H0z"/>
    </clipPath>
  </defs>
</svg>
