<svg xmlns="http://www.w3.org/2000/svg" viewBox="0 0 128 128" fill="#ccc"><path fill="#CCC" d="M64 0C28.654 0 0 28.654 0 64c0 35.346 28.654 64 64 64 35.346 0 64-28.654 64-64 0-35.346-28.654-64-64-64Zm30.69 86.077h-3.87V62.141c0-8.69-4.503-13.746-11.929-13.746-6.794 0-12.719 5.214-12.719 14.22v23.462h-3.87V61.904c0-8.376-4.583-13.51-11.771-13.51-7.19 0-12.877 6.32-12.877 14.458v23.224h-3.871V45.788h3.87v7.189c2.608-4.187 6.242-8.137 13.43-8.137 7.032 0 11.376 4.029 13.588 8.69 2.607-4.503 6.952-8.69 14.536-8.69 9.559 0 15.484 6.715 15.484 16.826v24.411Z"/></svg>
