<svg xmlns="http://www.w3.org/2000/svg" viewBox="0 0 128 128"><path fill="#fff" d="M128 64c0 35.346-28.654 64-64 64-35.346 0-64-28.654-64-64C0 28.654 28.654 0 64 0c35.346 0 64 28.654 64 64Zm-37.18-3.36v23.937h3.871v-24.41c0-10.112-5.925-16.827-15.484-16.827-7.584 0-11.928 4.187-14.535 8.69-2.213-4.661-6.557-8.69-13.588-8.69-7.19 0-10.823 3.95-13.43 8.137v-7.19h-3.871v40.29h3.87V61.351c0-8.137 5.689-14.457 12.878-14.457 7.188 0 11.77 5.133 11.77 13.508v24.174h3.871V61.115c0-9.006 5.925-14.22 12.719-14.22 7.426 0 11.929 5.056 11.929 13.746Z"/></svg>