<svg viewBox="0 0 24 24" fill="currentColor" xmlns="http://www.w3.org/2000/svg"><path d="M11.724 1.040 C 11.471 1.124,11.438 1.155,9.295 3.296 C 7.278 5.312,7.174 5.420,7.099 5.580 C 7.025 5.737,7.020 5.765,7.020 6.000 C 7.020 6.225,7.027 6.267,7.087 6.394 C 7.212 6.662,7.441 6.870,7.698 6.949 C 7.846 6.995,8.168 6.996,8.294 6.951 C 8.544 6.863,8.605 6.809,9.797 5.621 L 10.990 4.432 10.998 7.310 C 11.007 10.516,10.994 10.278,11.174 10.549 C 11.281 10.710,11.417 10.825,11.606 10.913 C 11.733 10.973,11.775 10.980,12.000 10.980 C 12.225 10.980,12.267 10.973,12.394 10.913 C 12.583 10.825,12.719 10.710,12.826 10.549 C 13.006 10.278,12.993 10.516,13.002 7.310 L 13.010 4.432 14.203 5.621 C 15.395 6.809,15.456 6.863,15.706 6.951 C 15.832 6.996,16.154 6.995,16.302 6.949 C 16.559 6.870,16.788 6.662,16.913 6.394 C 16.973 6.267,16.980 6.225,16.980 6.000 C 16.980 5.765,16.975 5.737,16.901 5.580 C 16.826 5.420,16.721 5.311,14.705 3.295 C 12.680 1.271,12.581 1.175,12.420 1.100 C 12.276 1.033,12.221 1.021,12.036 1.015 C 11.903 1.011,11.783 1.021,11.724 1.040 M4.632 9.981 C 4.317 10.082,4.067 10.338,3.974 10.654 C 3.897 10.916,3.943 11.230,4.089 11.455 C 4.134 11.524,4.531 11.939,4.971 12.377 C 5.844 13.245,5.885 13.277,6.193 13.320 C 6.519 13.366,6.802 13.272,7.039 13.039 C 7.266 12.817,7.366 12.515,7.320 12.192 C 7.277 11.885,7.245 11.843,6.377 10.971 C 5.939 10.531,5.524 10.134,5.455 10.089 C 5.225 9.939,4.896 9.896,4.632 9.981 M18.797 9.973 C 18.728 9.992,18.614 10.044,18.545 10.089 C 18.476 10.134,18.061 10.531,17.623 10.971 C 16.752 11.847,16.724 11.884,16.679 12.200 C 16.634 12.515,16.735 12.819,16.958 13.042 C 17.181 13.265,17.485 13.366,17.800 13.321 C 18.116 13.276,18.153 13.248,19.029 12.377 C 19.469 11.939,19.866 11.524,19.911 11.455 C 20.057 11.231,20.099 10.945,20.027 10.668 C 19.982 10.494,19.921 10.390,19.778 10.241 C 19.522 9.974,19.161 9.875,18.797 9.973 M11.424 13.035 C 9.882 13.212,8.509 14.107,7.694 15.467 C 7.249 16.209,6.981 17.207,7.012 18.005 C 7.020 18.211,7.033 18.276,7.088 18.394 C 7.174 18.582,7.289 18.719,7.451 18.826 C 7.626 18.943,7.772 18.985,8.004 18.985 C 8.279 18.987,8.496 18.902,8.683 18.720 C 8.905 18.504,8.968 18.344,9.000 17.903 C 9.061 17.055,9.331 16.442,9.886 15.886 C 10.236 15.537,10.588 15.315,11.040 15.161 C 11.374 15.047,11.598 15.012,12.000 15.012 C 12.402 15.012,12.626 15.047,12.960 15.161 C 13.412 15.315,13.762 15.536,14.113 15.887 C 14.674 16.447,14.939 17.055,15.001 17.917 C 15.032 18.346,15.094 18.504,15.317 18.720 C 15.504 18.902,15.721 18.987,15.996 18.985 C 16.228 18.985,16.374 18.943,16.549 18.826 C 16.711 18.719,16.825 18.583,16.913 18.394 C 17.109 17.970,16.941 16.820,16.555 15.946 C 16.155 15.040,15.423 14.224,14.534 13.694 C 13.956 13.349,13.236 13.110,12.540 13.033 C 12.286 13.004,11.680 13.005,11.424 13.035 M1.872 17.016 C 1.678 17.045,1.601 17.074,1.452 17.173 C 1.290 17.281,1.175 17.416,1.087 17.606 C 1.027 17.733,1.020 17.775,1.020 18.000 C 1.020 18.225,1.027 18.267,1.087 18.394 C 1.175 18.583,1.290 18.719,1.451 18.827 C 1.708 18.997,1.700 18.996,3.000 18.996 C 4.300 18.996,4.292 18.997,4.549 18.827 C 4.710 18.719,4.825 18.583,4.913 18.394 C 4.973 18.267,4.980 18.225,4.980 18.000 C 4.980 17.775,4.973 17.733,4.913 17.606 C 4.825 17.417,4.710 17.281,4.549 17.174 C 4.299 17.008,4.310 17.009,3.096 17.002 C 2.495 16.999,1.945 17.005,1.872 17.016 M19.872 17.016 C 19.678 17.045,19.601 17.074,19.452 17.173 C 19.290 17.281,19.175 17.416,19.087 17.606 C 19.027 17.733,19.020 17.775,19.020 18.000 C 19.020 18.225,19.027 18.267,19.087 18.394 C 19.175 18.583,19.290 18.719,19.451 18.827 C 19.708 18.997,19.700 18.996,21.000 18.996 C 22.300 18.996,22.292 18.997,22.549 18.827 C 22.710 18.719,22.825 18.583,22.913 18.394 C 22.973 18.267,22.980 18.225,22.980 18.000 C 22.980 17.775,22.973 17.733,22.913 17.606 C 22.825 17.417,22.710 17.281,22.549 17.174 C 22.299 17.008,22.310 17.009,21.096 17.002 C 20.495 16.999,19.945 17.005,19.872 17.016 M1.776 21.033 C 1.133 21.176,0.805 21.931,1.138 22.500 C 1.265 22.715,1.498 22.895,1.734 22.958 C 1.923 23.008,22.077 23.008,22.266 22.958 C 22.592 22.871,22.871 22.592,22.958 22.266 C 23.107 21.705,22.751 21.130,22.189 21.026 C 21.973 20.986,1.956 20.993,1.776 21.033 " stroke="none" fill-rule="evenodd"/></svg>