<svg viewBox="0 0 24 24" fill="currentColor" xmlns="http://www.w3.org/2000/svg"><path d="M11.724 1.040 C 11.486 1.119,11.304 1.255,11.173 1.451 C 11.003 1.708,11.004 1.700,11.004 3.000 C 11.004 4.300,11.003 4.292,11.173 4.549 C 11.281 4.710,11.417 4.825,11.606 4.913 C 11.733 4.973,11.775 4.980,12.000 4.980 C 12.225 4.980,12.267 4.973,12.394 4.913 C 12.583 4.825,12.719 4.710,12.827 4.549 C 12.997 4.292,12.996 4.300,12.996 3.000 C 12.996 1.700,12.997 1.708,12.827 1.451 C 12.719 1.289,12.582 1.174,12.394 1.088 C 12.279 1.035,12.211 1.021,12.036 1.015 C 11.903 1.011,11.783 1.021,11.724 1.040 M4.632 3.981 C 4.317 4.082,4.067 4.338,3.974 4.654 C 3.897 4.916,3.943 5.230,4.089 5.455 C 4.134 5.524,4.531 5.939,4.971 6.377 C 5.844 7.245,5.885 7.277,6.193 7.320 C 6.519 7.366,6.802 7.272,7.039 7.039 C 7.266 6.817,7.366 6.515,7.320 6.192 C 7.277 5.885,7.245 5.843,6.377 4.971 C 5.939 4.531,5.524 4.134,5.455 4.089 C 5.225 3.939,4.896 3.896,4.632 3.981 M18.797 3.973 C 18.728 3.992,18.614 4.044,18.545 4.089 C 18.476 4.134,18.061 4.531,17.623 4.971 C 16.752 5.847,16.724 5.884,16.679 6.200 C 16.634 6.515,16.735 6.819,16.958 7.042 C 17.181 7.265,17.485 7.366,17.800 7.321 C 18.116 7.276,18.153 7.248,19.029 6.377 C 19.469 5.939,19.866 5.524,19.911 5.455 C 20.057 5.231,20.099 4.945,20.027 4.668 C 19.982 4.494,19.921 4.390,19.778 4.241 C 19.522 3.974,19.161 3.875,18.797 3.973 M11.484 7.023 C 11.116 7.063,10.612 7.182,10.260 7.312 C 10.019 7.401,9.536 7.642,9.401 7.741 C 9.198 7.891,9.057 8.165,9.032 8.460 C 8.995 8.897,9.287 9.330,9.708 9.463 C 10.026 9.563,10.213 9.538,10.620 9.338 C 11.102 9.101,11.513 9.000,12.000 9.000 C 13.469 9.000,14.725 10.073,14.966 11.533 C 14.997 11.724,15.001 11.842,14.986 12.120 C 14.950 12.787,14.956 12.878,15.047 13.068 C 15.241 13.472,15.663 13.700,16.090 13.632 C 16.275 13.603,16.336 13.579,16.506 13.469 C 16.663 13.367,16.807 13.189,16.873 13.012 C 16.978 12.732,17.025 11.943,16.967 11.436 C 16.871 10.599,16.549 9.772,16.037 9.048 C 15.830 8.756,15.320 8.241,15.012 8.013 C 14.327 7.507,13.651 7.216,12.804 7.065 C 12.616 7.031,11.682 7.002,11.484 7.023 M6.720 11.008 C 5.222 11.086,3.829 11.700,2.783 12.744 C 2.099 13.425,1.596 14.234,1.304 15.120 C 0.981 16.102,0.920 17.292,1.142 18.285 C 1.439 19.610,2.195 20.838,3.216 21.651 C 4.154 22.399,5.178 22.827,6.336 22.958 C 6.786 23.008,13.171 23.007,13.529 22.956 C 14.449 22.825,15.236 22.428,15.865 21.777 C 16.096 21.537,16.243 21.352,16.388 21.114 C 17.063 20.010,17.177 18.720,16.705 17.513 C 16.395 16.720,15.781 16.006,15.028 15.560 C 14.425 15.203,13.834 15.039,13.043 15.008 L 12.658 14.993 12.578 14.786 C 12.319 14.118,11.856 13.404,11.317 12.843 C 10.384 11.874,9.249 11.289,7.872 11.066 C 7.686 11.036,7.084 10.991,6.948 10.997 C 6.895 10.999,6.793 11.004,6.720 11.008 M19.872 11.016 C 19.678 11.045,19.601 11.074,19.452 11.173 C 19.290 11.281,19.175 11.416,19.087 11.606 C 19.027 11.733,19.020 11.775,19.020 12.000 C 19.020 12.225,19.027 12.267,19.087 12.394 C 19.175 12.583,19.290 12.719,19.451 12.827 C 19.708 12.997,19.700 12.996,21.000 12.996 C 22.300 12.996,22.292 12.997,22.549 12.827 C 22.710 12.719,22.825 12.583,22.913 12.394 C 22.973 12.267,22.980 12.225,22.980 12.000 C 22.980 11.775,22.973 11.733,22.913 11.606 C 22.825 11.417,22.710 11.281,22.549 11.174 C 22.299 11.008,22.310 11.009,21.096 11.002 C 20.495 10.999,19.945 11.005,19.872 11.016 M7.404 13.020 C 8.190 13.084,9.063 13.472,9.661 14.021 C 10.338 14.644,10.677 15.217,10.910 16.138 C 10.944 16.268,10.991 16.415,11.015 16.463 C 11.101 16.631,11.273 16.794,11.467 16.890 L 11.649 16.980 12.479 16.995 C 13.375 17.011,13.437 17.019,13.772 17.158 C 14.025 17.263,14.250 17.422,14.452 17.637 C 14.705 17.907,14.864 18.197,14.954 18.552 C 15.004 18.746,14.997 19.289,14.943 19.488 C 14.787 20.062,14.383 20.551,13.860 20.798 C 13.427 21.003,13.763 20.985,10.092 20.995 C 7.846 21.000,6.747 20.995,6.569 20.977 C 5.885 20.907,5.172 20.625,4.594 20.196 C 4.342 20.008,3.933 19.594,3.765 19.355 C 3.097 18.412,2.860 17.304,3.085 16.181 C 3.181 15.699,3.441 15.106,3.738 14.688 C 3.946 14.395,4.414 13.927,4.698 13.728 C 5.269 13.328,6.008 13.063,6.702 13.010 C 6.943 12.991,7.068 12.993,7.404 13.020 " stroke="none" fill-rule="evenodd"/></svg>