<svg viewBox="0 0 24 24" fill="currentColor" xmlns="http://www.w3.org/2000/svg"><path d="M11.844 2.020 C 11.641 2.048,11.432 2.158,11.283 2.316 C 11.028 2.585,10.979 2.813,10.999 3.647 C 11.013 4.250,11.029 4.331,11.174 4.549 C 11.281 4.710,11.417 4.825,11.606 4.913 C 11.733 4.973,11.775 4.980,12.000 4.980 C 12.225 4.980,12.267 4.973,12.394 4.913 C 12.583 4.825,12.719 4.710,12.826 4.549 C 12.971 4.331,12.987 4.250,13.001 3.647 C 13.021 2.816,12.972 2.585,12.722 2.320 C 12.490 2.075,12.191 1.973,11.844 2.020 M5.520 4.648 C 5.272 4.687,5.093 4.775,4.931 4.937 C 4.710 5.158,4.610 5.462,4.655 5.780 C 4.697 6.071,4.771 6.178,5.297 6.701 C 5.681 7.083,5.798 7.185,5.909 7.236 C 6.306 7.418,6.744 7.343,7.043 7.043 C 7.343 6.743,7.418 6.306,7.236 5.909 C 7.185 5.799,7.083 5.681,6.713 5.308 C 6.257 4.850,6.149 4.761,5.963 4.696 C 5.858 4.660,5.614 4.633,5.520 4.648 M18.196 4.656 C 17.933 4.695,17.811 4.783,17.299 5.297 C 16.919 5.679,16.815 5.799,16.765 5.908 C 16.581 6.308,16.655 6.742,16.957 7.043 C 17.256 7.343,17.694 7.418,18.091 7.236 C 18.202 7.185,18.319 7.083,18.703 6.701 C 19.229 6.178,19.303 6.071,19.345 5.780 C 19.390 5.460,19.290 5.158,19.066 4.934 C 18.840 4.708,18.525 4.607,18.196 4.656 M11.424 7.035 C 10.314 7.163,9.269 7.670,8.470 8.470 C 7.521 9.419,7.008 10.656,7.008 12.000 C 7.008 13.344,7.521 14.581,8.470 15.530 C 9.419 16.479,10.656 16.992,12.000 16.992 C 13.777 16.992,15.389 16.071,16.306 14.534 C 17.023 13.333,17.191 11.799,16.752 10.464 C 16.496 9.683,16.104 9.044,15.530 8.470 C 14.719 7.658,13.683 7.160,12.540 7.033 C 12.286 7.004,11.680 7.005,11.424 7.035 M12.600 9.060 C 13.208 9.195,13.680 9.452,14.114 9.886 C 14.383 10.156,14.531 10.360,14.688 10.677 C 14.906 11.118,14.988 11.481,14.988 12.000 C 14.988 12.640,14.835 13.147,14.479 13.689 C 14.335 13.909,13.909 14.335,13.689 14.479 C 13.147 14.835,12.640 14.988,12.000 14.988 C 11.360 14.988,10.853 14.835,10.311 14.479 C 10.091 14.335,9.665 13.909,9.521 13.689 C 9.165 13.147,9.012 12.640,9.012 12.000 C 9.012 11.731,9.024 11.572,9.056 11.424 C 9.181 10.839,9.437 10.347,9.828 9.939 C 10.296 9.450,10.822 9.170,11.527 9.035 C 11.755 8.992,12.356 9.005,12.600 9.060 M2.844 11.017 C 2.423 11.082,2.078 11.432,2.020 11.852 C 1.975 12.182,2.082 12.497,2.316 12.717 C 2.585 12.972,2.813 13.021,3.647 13.001 C 4.250 12.987,4.331 12.971,4.549 12.826 C 4.710 12.719,4.825 12.583,4.913 12.394 C 4.973 12.267,4.980 12.225,4.980 12.000 C 4.980 11.775,4.973 11.733,4.913 11.606 C 4.789 11.339,4.564 11.134,4.302 11.048 C 4.166 11.004,3.081 10.981,2.844 11.017 M19.872 11.017 C 19.680 11.045,19.602 11.074,19.452 11.173 C 19.290 11.281,19.175 11.416,19.087 11.606 C 19.027 11.733,19.020 11.775,19.020 12.000 C 19.020 12.225,19.027 12.267,19.087 12.394 C 19.212 12.661,19.437 12.867,19.698 12.951 C 19.850 13.001,20.809 13.025,21.097 12.987 C 21.573 12.924,21.919 12.595,21.980 12.148 C 22.025 11.818,21.918 11.503,21.684 11.283 C 21.524 11.131,21.354 11.049,21.131 11.017 C 20.938 10.989,20.067 10.989,19.872 11.017 M6.148 16.680 C 5.891 16.734,5.794 16.805,5.297 17.299 C 4.771 17.822,4.697 17.929,4.655 18.220 C 4.610 18.540,4.710 18.842,4.934 19.066 C 5.157 19.289,5.461 19.390,5.776 19.345 C 6.070 19.304,6.158 19.243,6.679 18.725 C 7.197 18.209,7.274 18.102,7.321 17.820 C 7.398 17.356,7.135 16.892,6.700 16.727 C 6.560 16.674,6.289 16.651,6.148 16.680 M17.464 16.681 C 17.290 16.710,17.099 16.814,16.957 16.957 C 16.649 17.264,16.579 17.711,16.775 18.108 C 16.831 18.223,16.941 18.347,17.321 18.725 C 17.842 19.243,17.930 19.304,18.224 19.345 C 18.539 19.390,18.843 19.289,19.066 19.066 C 19.289 18.843,19.390 18.539,19.345 18.224 C 19.304 17.930,19.243 17.842,18.725 17.321 C 18.209 16.802,18.101 16.726,17.820 16.680 C 17.658 16.653,17.628 16.654,17.464 16.681 M11.724 19.040 C 11.486 19.119,11.304 19.255,11.174 19.451 C 11.029 19.669,11.013 19.750,10.999 20.353 C 10.979 21.187,11.028 21.415,11.283 21.684 C 11.669 22.093,12.331 22.093,12.717 21.684 C 12.972 21.415,13.021 21.187,13.001 20.353 C 12.987 19.750,12.971 19.669,12.826 19.451 C 12.719 19.289,12.582 19.174,12.394 19.088 C 12.279 19.035,12.211 19.021,12.036 19.015 C 11.903 19.011,11.783 19.021,11.724 19.040 " stroke="none" fill-rule="evenodd"/></svg>