<svg viewBox="0 0 24 24" fill="currentColor" xmlns="http://www.w3.org/2000/svg"><path d="M11.724 1.040 C 11.486 1.119,11.304 1.255,11.173 1.451 C 11.003 1.708,11.004 1.700,11.004 3.000 C 11.004 4.300,11.003 4.292,11.173 4.549 C 11.281 4.710,11.417 4.825,11.606 4.913 C 11.733 4.973,11.775 4.980,12.000 4.980 C 12.225 4.980,12.267 4.973,12.394 4.913 C 12.583 4.825,12.719 4.710,12.827 4.549 C 12.997 4.292,12.996 4.300,12.996 3.000 C 12.996 1.700,12.997 1.708,12.827 1.451 C 12.719 1.289,12.582 1.174,12.394 1.088 C 12.279 1.035,12.211 1.021,12.036 1.015 C 11.903 1.011,11.783 1.021,11.724 1.040 M4.552 3.971 C 4.277 4.084,4.113 4.239,3.991 4.502 C 3.913 4.670,3.888 4.973,3.937 5.156 C 4.000 5.391,4.084 5.490,4.925 6.326 C 5.673 7.069,5.762 7.150,5.904 7.213 C 6.042 7.274,6.088 7.282,6.301 7.283 C 6.532 7.284,6.550 7.280,6.723 7.195 C 6.945 7.085,7.102 6.925,7.207 6.701 C 7.277 6.553,7.283 6.520,7.283 6.300 C 7.282 6.088,7.274 6.042,7.213 5.904 C 7.150 5.762,7.069 5.674,6.326 4.925 C 5.876 4.472,5.462 4.075,5.406 4.042 C 5.160 3.897,4.802 3.868,4.552 3.971 M18.780 3.956 C 18.714 3.979,18.617 4.027,18.564 4.061 C 18.430 4.148,16.915 5.677,16.838 5.803 C 16.540 6.287,16.758 6.953,17.299 7.207 C 17.447 7.277,17.480 7.283,17.700 7.283 C 17.912 7.282,17.958 7.274,18.096 7.213 C 18.238 7.150,18.326 7.070,19.063 6.338 C 19.509 5.895,19.906 5.482,19.945 5.422 C 20.054 5.253,20.094 5.088,20.084 4.850 C 20.077 4.679,20.063 4.617,19.999 4.482 C 19.900 4.273,19.727 4.100,19.518 4.001 C 19.376 3.933,19.328 3.923,19.128 3.919 C 18.960 3.915,18.869 3.924,18.780 3.956 M11.424 7.034 C 9.753 7.236,8.276 8.268,7.540 9.749 C 7.152 10.531,6.990 11.265,7.015 12.132 C 7.029 12.610,7.071 12.907,7.187 13.337 C 7.643 15.029,9.015 16.385,10.715 16.825 C 11.239 16.961,11.390 16.979,12.012 16.979 C 12.628 16.979,12.803 16.958,13.272 16.833 C 15.279 16.295,16.738 14.601,16.968 12.540 C 17.002 12.231,16.997 11.864,16.958 11.732 C 16.821 11.284,16.452 11.009,15.988 11.012 C 15.713 11.014,15.524 11.093,15.272 11.309 C 15.070 11.482,14.895 11.584,14.646 11.672 C 14.448 11.742,14.416 11.747,14.088 11.747 C 13.723 11.748,13.622 11.731,13.356 11.622 C 12.893 11.432,12.492 10.998,12.321 10.500 C 12.260 10.324,12.255 10.278,12.254 9.936 C 12.253 9.579,12.256 9.556,12.328 9.354 C 12.413 9.114,12.517 8.930,12.670 8.752 C 12.909 8.472,12.986 8.286,12.985 7.992 C 12.984 7.771,12.941 7.624,12.826 7.451 C 12.719 7.290,12.583 7.175,12.394 7.087 C 12.263 7.026,12.227 7.020,11.928 7.016 C 11.750 7.014,11.523 7.022,11.424 7.034 M10.294 10.572 C 10.456 11.417,10.806 12.083,11.390 12.661 C 12.109 13.371,13.054 13.752,14.098 13.752 C 14.487 13.752,14.483 13.733,14.169 14.063 C 13.745 14.508,13.275 14.777,12.648 14.930 C 12.341 15.005,11.740 15.011,11.412 14.943 C 10.796 14.813,10.333 14.563,9.885 14.115 C 9.448 13.677,9.213 13.254,9.067 12.639 C 9.023 12.457,9.015 12.346,9.014 11.988 C 9.014 11.593,9.019 11.535,9.079 11.308 C 9.258 10.630,9.579 10.117,10.092 9.688 L 10.236 9.568 10.251 9.998 C 10.259 10.234,10.279 10.493,10.294 10.572 M1.872 11.016 C 1.678 11.045,1.601 11.074,1.452 11.173 C 1.290 11.281,1.175 11.416,1.087 11.606 C 1.027 11.733,1.020 11.775,1.020 12.000 C 1.020 12.225,1.027 12.267,1.087 12.394 C 1.175 12.583,1.290 12.719,1.451 12.827 C 1.708 12.997,1.700 12.996,3.000 12.996 C 4.300 12.996,4.292 12.997,4.549 12.827 C 4.710 12.719,4.825 12.583,4.913 12.394 C 4.973 12.267,4.980 12.225,4.980 12.000 C 4.980 11.775,4.973 11.733,4.913 11.606 C 4.825 11.417,4.710 11.281,4.549 11.174 C 4.299 11.008,4.310 11.009,3.096 11.002 C 2.495 10.999,1.945 11.005,1.872 11.016 M19.872 11.016 C 19.678 11.045,19.601 11.074,19.452 11.173 C 19.290 11.281,19.175 11.416,19.087 11.606 C 19.027 11.733,19.020 11.775,19.020 12.000 C 19.020 12.225,19.027 12.267,19.087 12.394 C 19.175 12.583,19.290 12.719,19.451 12.827 C 19.708 12.997,19.700 12.996,21.000 12.996 C 22.300 12.996,22.292 12.997,22.549 12.827 C 22.710 12.719,22.825 12.583,22.913 12.394 C 22.973 12.267,22.980 12.225,22.980 12.000 C 22.980 11.775,22.973 11.733,22.913 11.606 C 22.825 11.417,22.710 11.281,22.549 11.174 C 22.299 11.008,22.310 11.009,21.096 11.002 C 20.495 10.999,19.945 11.005,19.872 11.016 M6.031 16.739 C 5.961 16.759,5.859 16.803,5.803 16.838 C 5.643 16.936,4.114 18.470,4.034 18.612 C 3.937 18.786,3.906 18.928,3.916 19.156 C 3.923 19.319,3.938 19.386,4.001 19.518 C 4.100 19.727,4.273 19.900,4.482 19.999 C 4.775 20.138,5.157 20.116,5.422 19.945 C 5.482 19.906,5.895 19.509,6.338 19.063 C 7.070 18.326,7.150 18.238,7.213 18.096 C 7.274 17.958,7.282 17.912,7.283 17.700 C 7.283 17.480,7.277 17.447,7.207 17.299 C 7.103 17.077,6.944 16.915,6.730 16.809 C 6.583 16.736,6.527 16.722,6.356 16.714 C 6.226 16.707,6.112 16.716,6.031 16.739 M17.466 16.729 C 16.871 16.879,16.545 17.540,16.790 18.101 C 16.850 18.237,16.935 18.331,17.662 19.063 C 18.105 19.509,18.518 19.906,18.578 19.945 C 18.747 20.054,18.912 20.094,19.150 20.084 C 19.321 20.077,19.383 20.063,19.518 19.999 C 19.727 19.900,19.900 19.727,19.999 19.518 C 20.138 19.225,20.116 18.843,19.945 18.578 C 19.906 18.518,19.509 18.105,19.063 17.662 C 18.327 16.931,18.238 16.850,18.099 16.789 C 17.929 16.715,17.632 16.687,17.466 16.729 M11.724 19.040 C 11.486 19.119,11.304 19.255,11.173 19.451 C 11.003 19.708,11.004 19.700,11.004 21.000 C 11.004 22.300,11.003 22.292,11.173 22.549 C 11.281 22.710,11.417 22.825,11.606 22.913 C 11.733 22.973,11.775 22.980,12.000 22.980 C 12.225 22.980,12.267 22.973,12.394 22.913 C 12.583 22.825,12.719 22.710,12.827 22.549 C 12.997 22.292,12.996 22.300,12.996 21.000 C 12.996 19.700,12.997 19.708,12.827 19.451 C 12.719 19.289,12.582 19.174,12.394 19.088 C 12.279 19.035,12.211 19.021,12.036 19.015 C 11.903 19.011,11.783 19.021,11.724 19.040 " stroke="none" fill-rule="evenodd"/></svg>