<svg viewBox="0 0 24 24" fill="currentColor" xmlns="http://www.w3.org/2000/svg"><path d="M11.724 1.040 C 11.486 1.119,11.304 1.255,11.174 1.451 C 10.994 1.722,11.007 1.484,10.998 4.690 L 10.990 7.568 9.797 6.379 C 8.605 5.191,8.544 5.137,8.294 5.049 C 8.168 5.004,7.846 5.005,7.698 5.051 C 7.441 5.130,7.212 5.338,7.087 5.606 C 7.027 5.733,7.020 5.775,7.020 6.000 C 7.020 6.235,7.025 6.263,7.099 6.420 C 7.174 6.580,7.279 6.689,9.295 8.705 C 11.311 10.721,11.420 10.826,11.580 10.901 C 11.737 10.975,11.765 10.980,12.000 10.980 C 12.235 10.980,12.263 10.975,12.420 10.901 C 12.580 10.826,12.689 10.721,14.705 8.705 C 16.721 6.689,16.826 6.580,16.901 6.420 C 16.975 6.263,16.980 6.235,16.980 6.000 C 16.980 5.775,16.973 5.733,16.913 5.606 C 16.788 5.338,16.559 5.130,16.302 5.051 C 16.154 5.005,15.832 5.004,15.706 5.049 C 15.456 5.137,15.395 5.191,14.203 6.379 L 13.010 7.568 13.002 4.690 C 12.993 1.484,13.006 1.722,12.826 1.451 C 12.719 1.289,12.582 1.174,12.394 1.088 C 12.279 1.035,12.211 1.021,12.036 1.015 C 11.903 1.011,11.783 1.021,11.724 1.040 M4.632 9.981 C 4.317 10.082,4.067 10.338,3.974 10.654 C 3.897 10.916,3.943 11.230,4.089 11.455 C 4.134 11.524,4.531 11.939,4.971 12.377 C 5.844 13.245,5.885 13.277,6.193 13.320 C 6.519 13.366,6.802 13.272,7.039 13.039 C 7.266 12.817,7.366 12.515,7.320 12.192 C 7.277 11.885,7.245 11.843,6.377 10.971 C 5.939 10.531,5.524 10.134,5.455 10.089 C 5.225 9.939,4.896 9.896,4.632 9.981 M18.797 9.973 C 18.728 9.992,18.614 10.044,18.545 10.089 C 18.476 10.134,18.061 10.531,17.623 10.971 C 16.752 11.847,16.724 11.884,16.679 12.200 C 16.634 12.515,16.735 12.819,16.958 13.042 C 17.181 13.265,17.485 13.366,17.800 13.321 C 18.116 13.276,18.153 13.248,19.029 12.377 C 19.469 11.939,19.866 11.524,19.911 11.455 C 20.057 11.231,20.099 10.945,20.027 10.668 C 19.982 10.494,19.921 10.390,19.778 10.241 C 19.522 9.974,19.161 9.875,18.797 9.973 M11.424 13.035 C 9.882 13.212,8.509 14.107,7.694 15.467 C 7.249 16.209,6.981 17.207,7.012 18.005 C 7.020 18.211,7.033 18.276,7.088 18.394 C 7.174 18.582,7.289 18.719,7.451 18.826 C 7.626 18.943,7.772 18.985,8.004 18.985 C 8.279 18.987,8.496 18.902,8.683 18.720 C 8.905 18.504,8.968 18.344,9.000 17.903 C 9.061 17.055,9.331 16.442,9.886 15.886 C 10.236 15.537,10.588 15.315,11.040 15.161 C 11.374 15.047,11.598 15.012,12.000 15.012 C 12.402 15.012,12.626 15.047,12.960 15.161 C 13.412 15.315,13.762 15.536,14.113 15.887 C 14.674 16.447,14.939 17.055,15.001 17.917 C 15.032 18.346,15.094 18.504,15.317 18.720 C 15.504 18.902,15.721 18.987,15.996 18.985 C 16.228 18.985,16.374 18.943,16.549 18.826 C 16.711 18.719,16.825 18.583,16.913 18.394 C 17.109 17.970,16.941 16.820,16.555 15.946 C 16.155 15.040,15.423 14.224,14.534 13.694 C 13.956 13.349,13.236 13.110,12.540 13.033 C 12.286 13.004,11.680 13.005,11.424 13.035 M1.872 17.016 C 1.678 17.045,1.601 17.074,1.452 17.173 C 1.290 17.281,1.175 17.416,1.087 17.606 C 1.027 17.733,1.020 17.775,1.020 18.000 C 1.020 18.225,1.027 18.267,1.087 18.394 C 1.175 18.583,1.290 18.719,1.451 18.827 C 1.708 18.997,1.700 18.996,3.000 18.996 C 4.300 18.996,4.292 18.997,4.549 18.827 C 4.710 18.719,4.825 18.583,4.913 18.394 C 4.973 18.267,4.980 18.225,4.980 18.000 C 4.980 17.775,4.973 17.733,4.913 17.606 C 4.825 17.417,4.710 17.281,4.549 17.174 C 4.299 17.008,4.310 17.009,3.096 17.002 C 2.495 16.999,1.945 17.005,1.872 17.016 M19.872 17.016 C 19.678 17.045,19.601 17.074,19.452 17.173 C 19.290 17.281,19.175 17.416,19.087 17.606 C 19.027 17.733,19.020 17.775,19.020 18.000 C 19.020 18.225,19.027 18.267,19.087 18.394 C 19.175 18.583,19.290 18.719,19.451 18.827 C 19.708 18.997,19.700 18.996,21.000 18.996 C 22.300 18.996,22.292 18.997,22.549 18.827 C 22.710 18.719,22.825 18.583,22.913 18.394 C 22.973 18.267,22.980 18.225,22.980 18.000 C 22.980 17.775,22.973 17.733,22.913 17.606 C 22.825 17.417,22.710 17.281,22.549 17.174 C 22.299 17.008,22.310 17.009,21.096 17.002 C 20.495 16.999,19.945 17.005,19.872 17.016 M1.776 21.033 C 1.133 21.176,0.805 21.931,1.138 22.500 C 1.265 22.715,1.498 22.895,1.734 22.958 C 1.923 23.008,22.077 23.008,22.266 22.958 C 22.592 22.871,22.871 22.592,22.958 22.266 C 23.107 21.705,22.751 21.130,22.189 21.026 C 21.973 20.986,1.956 20.993,1.776 21.033 " stroke="none" fill-rule="evenodd"/></svg>