<svg viewBox="0 0 24 24" fill="currentColor" xmlns="http://www.w3.org/2000/svg"><path d="M6.889 0.638 C 6.373 0.777,6.051 1.307,6.170 1.823 C 6.231 2.089,6.226 2.083,8.226 4.085 L 10.138 5.999 6.719 6.007 C 3.625 6.014,3.285 6.019,3.139 6.055 C 2.106 6.312,1.379 6.997,1.087 7.992 L 1.020 8.220 1.013 14.388 C 1.007 18.960,1.013 20.603,1.033 20.736 C 1.088 21.093,1.242 21.485,1.452 21.804 C 1.587 22.009,1.941 22.367,2.150 22.512 C 2.389 22.677,2.722 22.832,3.013 22.913 L 3.252 22.980 12.000 22.980 L 20.748 22.980 20.983 22.915 C 21.269 22.836,21.611 22.677,21.850 22.512 C 22.057 22.369,22.412 22.009,22.544 21.809 C 22.761 21.480,22.916 21.082,22.967 20.723 C 22.987 20.584,22.992 18.868,22.987 14.388 L 22.980 8.244 22.914 8.005 C 22.675 7.136,22.010 6.427,21.173 6.146 C 20.761 6.007,20.999 6.016,17.281 6.007 L 13.862 5.999 15.774 4.085 C 17.774 2.083,17.769 2.089,17.830 1.823 C 17.910 1.477,17.780 1.080,17.512 0.851 C 17.205 0.588,16.767 0.532,16.409 0.710 C 16.309 0.760,15.858 1.198,14.142 2.912 L 12.000 5.052 9.858 2.912 C 8.180 1.235,7.690 0.760,7.596 0.713 C 7.368 0.600,7.125 0.575,6.889 0.638 M20.587 8.061 C 20.754 8.137,20.917 8.318,20.964 8.482 C 20.996 8.591,21.000 9.319,20.994 14.545 L 20.988 20.484 20.936 20.596 C 20.866 20.749,20.711 20.892,20.553 20.951 L 20.422 21.000 12.000 21.000 L 3.578 21.000 3.447 20.951 C 3.289 20.892,3.134 20.749,3.064 20.596 L 3.012 20.484 3.006 14.545 C 2.999 7.918,2.985 8.458,3.170 8.247 C 3.284 8.118,3.415 8.043,3.574 8.016 C 3.635 8.006,7.459 7.999,12.072 8.001 L 20.460 8.004 20.587 8.061 M4.090 8.949 C 3.966 9.006,3.852 9.144,3.818 9.278 C 3.803 9.338,3.792 9.619,3.792 9.947 L 3.792 10.512 4.704 10.512 L 5.616 10.512 5.616 11.316 L 5.616 12.120 4.704 12.120 L 3.791 12.120 3.798 12.930 L 3.804 13.740 4.710 13.746 L 5.616 13.753 5.616 14.556 L 5.616 15.360 4.704 15.360 L 3.792 15.360 3.792 16.164 L 3.792 16.968 4.704 16.968 L 5.616 16.968 5.616 17.784 L 5.616 18.600 4.703 18.600 L 3.789 18.600 3.797 19.218 L 3.804 19.836 3.871 19.949 C 3.914 20.023,3.977 20.086,4.051 20.129 L 4.164 20.196 4.890 20.203 L 5.616 20.211 5.616 19.405 L 5.616 18.600 6.528 18.600 L 7.440 18.600 7.440 19.404 L 7.440 20.208 8.352 20.208 L 9.264 20.208 9.264 19.404 L 9.264 18.600 10.176 18.600 L 11.088 18.600 11.088 19.404 L 11.088 20.208 12.000 20.208 L 12.912 20.208 12.912 19.404 L 12.912 18.600 13.824 18.600 L 14.736 18.600 14.736 19.404 L 14.736 20.208 15.648 20.208 L 16.560 20.208 16.560 19.404 L 16.560 18.600 17.472 18.600 L 18.384 18.600 18.384 19.405 L 18.384 20.211 19.110 20.203 L 19.836 20.196 19.949 20.129 C 20.023 20.086,20.086 20.023,20.129 19.949 L 20.196 19.836 20.203 19.218 L 20.211 18.600 19.297 18.600 L 18.384 18.600 18.384 17.784 L 18.384 16.968 19.296 16.968 L 20.208 16.968 20.208 16.164 L 20.208 15.360 19.296 15.360 L 18.384 15.360 18.384 14.556 L 18.384 13.753 19.290 13.746 L 20.196 13.740 20.202 12.930 L 20.209 12.120 19.296 12.120 L 18.384 12.120 18.384 11.316 L 18.384 10.512 19.296 10.512 L 20.208 10.512 20.208 9.947 C 20.208 9.322,20.193 9.219,20.082 9.084 C 19.940 8.912,19.903 8.905,19.098 8.905 L 18.384 8.904 18.384 9.708 L 18.384 10.512 17.472 10.512 L 16.560 10.512 16.560 9.708 L 16.560 8.904 15.648 8.904 L 14.736 8.904 14.736 9.708 L 14.736 10.512 13.824 10.512 L 12.912 10.512 12.912 9.708 L 12.912 8.904 12.000 8.904 L 11.088 8.904 11.088 9.708 L 11.088 10.512 10.176 10.512 L 9.264 10.512 9.264 9.708 L 9.264 8.904 8.352 8.904 L 7.440 8.904 7.440 9.708 L 7.440 10.512 6.528 10.512 L 5.616 10.512 5.616 9.708 L 5.616 8.904 4.902 8.905 C 4.259 8.905,4.178 8.909,4.090 8.949 M9.264 11.316 L 9.264 12.120 10.176 12.120 L 11.088 12.120 11.088 11.316 L 11.088 10.512 12.000 10.512 L 12.912 10.512 12.912 11.316 L 12.912 12.120 13.824 12.120 L 14.736 12.120 14.736 11.316 L 14.736 10.512 15.648 10.512 L 16.560 10.512 16.560 11.316 L 16.560 12.120 17.472 12.120 L 18.385 12.120 18.378 12.930 L 18.372 13.740 17.466 13.746 L 16.560 13.753 16.560 14.556 L 16.560 15.360 17.472 15.360 L 18.384 15.360 18.384 16.164 L 18.384 16.968 17.472 16.968 L 16.561 16.968 16.554 17.778 L 16.548 18.588 15.642 18.594 L 14.736 18.601 14.736 17.784 L 14.736 16.968 13.824 16.968 L 12.912 16.968 12.912 17.784 L 12.912 18.600 12.000 18.600 L 11.088 18.600 11.088 17.784 L 11.088 16.968 10.176 16.968 L 9.264 16.968 9.264 17.784 L 9.264 18.601 8.358 18.594 L 7.452 18.588 7.446 17.778 L 7.439 16.968 6.528 16.968 L 5.616 16.968 5.616 16.164 L 5.616 15.360 6.528 15.360 L 7.440 15.360 7.440 14.556 L 7.440 13.753 6.534 13.746 L 5.628 13.740 5.622 12.930 L 5.615 12.120 6.528 12.120 L 7.440 12.120 7.440 11.316 L 7.440 10.512 8.352 10.512 L 9.264 10.512 9.264 11.316 M7.440 12.936 L 7.440 13.752 8.352 13.752 L 9.264 13.752 9.264 14.556 L 9.264 15.360 8.352 15.360 L 7.440 15.360 7.440 16.164 L 7.440 16.968 8.352 16.968 L 9.264 16.968 9.264 16.164 L 9.264 15.360 10.176 15.360 L 11.088 15.360 11.088 16.164 L 11.088 16.968 12.000 16.968 L 12.912 16.968 12.912 16.164 L 12.912 15.360 13.824 15.360 L 14.736 15.360 14.736 16.164 L 14.736 16.968 15.648 16.968 L 16.560 16.968 16.560 16.164 L 16.560 15.360 15.648 15.360 L 14.736 15.360 14.736 14.556 L 14.736 13.752 15.648 13.752 L 16.560 13.752 16.560 12.936 L 16.560 12.120 15.648 12.120 L 14.736 12.120 14.736 12.936 L 14.736 13.752 13.824 13.752 L 12.912 13.752 12.912 12.936 L 12.912 12.120 12.000 12.120 L 11.088 12.120 11.088 12.936 L 11.088 13.752 10.176 13.752 L 9.264 13.752 9.264 12.936 L 9.264 12.120 8.352 12.120 L 7.440 12.120 7.440 12.936 M12.912 14.556 L 12.912 15.360 12.000 15.360 L 11.088 15.360 11.088 14.556 L 11.088 13.752 12.000 13.752 L 12.912 13.752 12.912 14.556 " stroke="none" fill-rule="evenodd"/></svg>