<svg viewBox="0 0 137 92" fill="none"
    xmlns="http://www.w3.org/2000/svg">
    <rect x="0.5" y="-0.5" width="82" height="34" rx="4.5" transform="matrix(1 0 0 -1 27 63)" stroke="currentcolor" fill="none" />
    <path d="M41.6667 37.6667V41M48.3333 37.6667V41M37.5 44.3334H52.5M39.1667 39.3334H50.8333C51.7538 39.3334 52.5 40.0795 52.5 41V52.6667C52.5 53.5872 51.7538 54.3334 50.8333 54.3334H39.1667C38.2462 54.3334 37.5 53.5872 37.5 52.6667V41C37.5 40.0795 38.2462 39.3334 39.1667 39.3334Z" stroke="currentcolor" stroke-width="2" stroke-linecap="round" stroke-linejoin="round" fill="none" />
    <path d="M63.1836 37.832C64.8828 37.832 66.123 39.0234 66.123 41.4111V41.4209C66.123 43.7305 65.0049 45.1221 63.1689 45.1221C61.8066 45.1221 60.7812 44.3311 60.5713 43.2422L60.5615 43.1982H62.0166L62.0312 43.2373C62.207 43.6621 62.5977 43.9502 63.1738 43.9502C64.2041 43.9502 64.6533 42.9688 64.707 41.7236C64.7119 41.6309 64.7168 41.5332 64.7119 41.4551H64.6875C64.4092 42.1094 63.7158 42.5879 62.7637 42.5879C61.4014 42.5879 60.4688 41.626 60.4688 40.3027V40.293C60.4688 38.8525 61.6162 37.832 63.1836 37.832ZM63.1885 41.499C63.9258 41.499 64.4922 40.9863 64.4922 40.2686V40.2637C64.4922 39.5508 63.9258 39.0039 63.2031 39.0039C62.4854 39.0039 61.9043 39.5459 61.9043 40.2441V40.2539C61.9043 40.9863 62.4561 41.499 63.1885 41.499ZM68.6426 45L71.1035 37.9541H72.8369L75.293 45H73.7451L73.2129 43.291H70.7227L70.1904 45H68.6426ZM71.9531 39.3213L71.0645 42.1875H72.8711L71.9824 39.3213H71.9531ZM76.0156 45V37.9541H77.7197L79.7217 43.0176H79.751L81.7529 37.9541H83.457V45H82.1436V40.2344H82.0996L80.2002 45H79.2725L77.3682 40.2344H77.3291V45H76.0156ZM60.5859 56V48.9541H62.29L64.292 54.0176H64.3213L66.3232 48.9541H68.0273V56H66.7139V51.2344H66.6699L64.7705 56H63.8428L61.9385 51.2344H61.8994V56H60.5859ZM71.46 56.1074C69.8584 56.1074 68.8867 55.0674 68.8867 53.3926V53.3877C68.8867 51.7227 69.8682 50.6582 71.4014 50.6582C72.9346 50.6582 73.8965 51.6982 73.8965 53.2803V53.7197H70.293C70.3076 54.5547 70.7617 55.043 71.4893 55.043C72.0752 55.043 72.4316 54.7207 72.5342 54.4277L72.5439 54.3984H73.8525L73.8379 54.4521C73.6768 55.2236 72.9541 56.1074 71.46 56.1074ZM71.4258 51.7227C70.8398 51.7227 70.4004 52.1133 70.3076 52.8213H72.5293C72.4414 52.0986 72.0166 51.7227 71.4258 51.7227ZM77.0166 56.1074C75.415 56.1074 74.4434 55.0674 74.4434 53.3926V53.3877C74.4434 51.7227 75.4248 50.6582 76.958 50.6582C78.4912 50.6582 79.4531 51.6982 79.4531 53.2803V53.7197H75.8496C75.8643 54.5547 76.3184 55.043 77.0459 55.043C77.6318 55.043 77.9883 54.7207 78.0908 54.4277L78.1006 54.3984H79.4092L79.3945 54.4521C79.2334 55.2236 78.5107 56.1074 77.0166 56.1074ZM76.9824 51.7227C76.3965 51.7227 75.957 52.1133 75.8643 52.8213H78.0859C77.998 52.0986 77.5732 51.7227 76.9824 51.7227ZM82.2705 56.1074C81.1084 56.1074 80.5615 55.6582 80.5615 54.5352V51.8398H79.834V50.7656H80.5615V49.4863H82.002V50.7656H82.959V51.8398H82.002V54.3789C82.002 54.8672 82.2217 55.0332 82.6514 55.0332C82.7783 55.0332 82.8711 55.0186 82.959 55.0088V56.0537C82.7979 56.0781 82.5684 56.1074 82.2705 56.1074ZM84.4873 50.0918C84.0576 50.0918 83.7256 49.7549 83.7256 49.3496C83.7256 48.9443 84.0576 48.6074 84.4873 48.6074C84.917 48.6074 85.249 48.9443 85.249 49.3496C85.249 49.7549 84.917 50.0918 84.4873 50.0918ZM83.7744 56V50.7656H85.2002V56H83.7744ZM86.1572 56V50.7656H87.583V51.625H87.6123C87.8809 51.0244 88.418 50.6582 89.209 50.6582C90.3613 50.6582 91.0156 51.3955 91.0156 52.6211V56H89.5898V52.9141C89.5898 52.2305 89.2676 51.8398 88.6279 51.8398C87.9883 51.8398 87.583 52.3086 87.583 52.9922V56H86.1572ZM94.3652 57.8164C92.9248 57.8164 92.0166 57.167 91.8799 56.3271L91.875 56.2832H93.2617L93.2764 56.3174C93.3887 56.5762 93.7695 56.8008 94.3652 56.8008C95.1025 56.8008 95.4932 56.4199 95.4932 55.834V55.0332H95.4639C95.1904 55.5801 94.6045 55.9268 93.8477 55.9268C92.5391 55.9268 91.7285 54.9502 91.7285 53.3242V53.3193C91.7285 51.6494 92.5488 50.6582 93.8721 50.6582C94.6094 50.6582 95.1807 51.0488 95.4639 51.6592H95.4932V50.7656H96.9189V55.8535C96.9189 57.0205 95.9375 57.8164 94.3652 57.8164ZM94.3408 54.8818C95.0391 54.8818 95.498 54.2959 95.498 53.3584V53.3535C95.498 52.4209 95.0342 51.8398 94.3408 51.8398C93.6328 51.8398 93.1787 52.416 93.1787 53.3535V53.3584C93.1787 54.3008 93.6279 54.8818 94.3408 54.8818Z" fill="currentcolor" />
</svg>