<svg viewBox="0 0 24 24" fill="currentColor" xmlns="http://www.w3.org/2000/svg"><path d="M18.132 0.026 C 17.015 0.142,16.011 0.855,15.517 1.884 C 15.315 2.303,15.219 2.696,15.199 3.183 C 15.151 4.376,15.718 5.459,16.732 6.111 C 17.152 6.380,17.616 6.541,18.144 6.602 C 19.668 6.776,21.147 5.830,21.633 4.368 C 21.751 4.014,21.797 3.722,21.799 3.324 C 21.801 2.711,21.661 2.172,21.370 1.670 C 20.703 0.522,19.457 -0.111,18.132 0.026 M8.244 0.783 C 6.649 0.946,5.265 1.569,4.122 2.639 C 2.882 3.802,2.110 5.483,2.018 7.224 C 1.955 8.425,2.192 9.572,2.723 10.630 L 2.853 10.889 2.807 11.067 C 2.642 11.698,2.644 12.439,2.810 13.047 C 3.071 13.998,3.693 14.821,4.524 15.317 C 5.344 15.806,6.338 15.973,7.272 15.778 C 8.003 15.626,8.722 15.218,9.265 14.646 L 9.518 14.380 9.721 14.353 C 12.489 13.983,14.761 11.964,15.443 9.266 C 15.714 8.198,15.717 7.007,15.453 5.940 C 14.830 3.423,12.807 1.461,10.271 0.916 C 9.786 0.812,9.553 0.788,8.940 0.780 C 8.610 0.776,8.297 0.777,8.244 0.783 M18.774 2.027 C 19.095 2.095,19.462 2.356,19.623 2.631 C 19.933 3.160,19.855 3.810,19.430 4.234 C 19.246 4.419,19.067 4.523,18.827 4.584 C 18.358 4.704,17.922 4.584,17.577 4.239 C 17.315 3.976,17.185 3.669,17.185 3.312 C 17.185 2.954,17.314 2.652,17.581 2.385 C 17.909 2.059,18.328 1.933,18.774 2.027 M9.449 2.797 C 11.001 2.999,12.360 3.942,13.098 5.328 C 13.324 5.753,13.490 6.238,13.590 6.768 C 13.633 6.998,13.642 7.132,13.643 7.572 C 13.643 8.140,13.625 8.308,13.512 8.761 C 13.298 9.614,12.876 10.359,12.253 10.980 C 11.737 11.494,11.230 11.828,10.574 12.085 L 10.308 12.189 10.281 11.836 C 10.243 11.347,10.202 11.150,10.055 10.735 C 9.698 9.725,8.854 8.877,7.820 8.488 C 7.120 8.224,6.277 8.178,5.543 8.363 C 5.159 8.460,4.696 8.667,4.363 8.890 L 4.205 8.996 4.164 8.836 C 4.061 8.428,4.028 8.187,4.015 7.751 C 3.995 7.106,4.062 6.627,4.248 6.068 C 4.603 5.002,5.340 4.068,6.295 3.474 C 6.705 3.219,7.316 2.971,7.782 2.869 C 8.288 2.759,8.940 2.731,9.449 2.797 M8.650 3.420 C 7.833 3.548,7.093 3.859,6.459 4.342 C 6.056 4.649,5.698 5.032,5.584 5.280 C 5.544 5.368,5.534 5.438,5.533 5.653 C 5.532 5.906,5.535 5.924,5.614 6.084 C 5.777 6.414,6.080 6.623,6.428 6.643 C 6.638 6.655,6.867 6.607,7.006 6.522 C 7.053 6.493,7.217 6.350,7.370 6.204 C 7.891 5.703,8.323 5.487,8.999 5.385 C 9.138 5.364,9.308 5.326,9.379 5.299 C 9.561 5.231,9.793 5.008,9.894 4.804 C 9.968 4.654,9.972 4.631,9.972 4.381 C 9.972 4.131,9.967 4.107,9.894 3.957 C 9.813 3.790,9.600 3.566,9.448 3.488 C 9.247 3.384,9.009 3.364,8.650 3.420 M6.900 10.284 C 7.431 10.397,7.962 10.857,8.172 11.387 C 8.409 11.989,8.309 12.667,7.906 13.172 C 7.401 13.806,6.564 14.034,5.819 13.740 C 5.421 13.583,5.054 13.244,4.863 12.859 C 4.802 12.736,4.736 12.560,4.716 12.468 C 4.664 12.223,4.670 11.833,4.728 11.602 C 4.885 10.977,5.401 10.458,6.024 10.297 C 6.247 10.240,6.660 10.234,6.900 10.284 M11.328 14.460 C 9.955 14.695,8.900 15.704,8.604 17.064 C 8.551 17.309,8.530 17.894,8.566 18.147 C 8.757 19.497,9.677 20.557,10.968 20.914 C 11.227 20.986,11.301 20.999,11.607 21.023 C 13.223 21.152,14.692 20.073,15.071 18.478 C 15.168 18.072,15.177 17.508,15.095 17.077 C 15.049 16.834,14.909 16.443,14.784 16.205 C 14.285 15.257,13.400 14.623,12.348 14.459 C 12.084 14.417,11.572 14.418,11.328 14.460 M12.166 16.453 C 12.615 16.559,13.027 16.971,13.130 17.417 C 13.173 17.605,13.161 17.942,13.106 18.122 C 12.985 18.511,12.630 18.865,12.240 18.986 C 12.041 19.048,11.699 19.052,11.504 18.996 C 11.158 18.895,10.846 18.647,10.687 18.346 C 10.444 17.888,10.500 17.301,10.822 16.913 C 11.165 16.500,11.654 16.332,12.166 16.453 M6.543 19.082 C 6.244 19.114,5.985 19.190,5.700 19.330 C 5.030 19.660,4.567 20.227,4.363 20.970 C 4.320 21.125,4.312 21.225,4.310 21.576 C 4.309 21.961,4.314 22.015,4.372 22.224 C 4.567 22.919,5.006 23.475,5.620 23.807 C 5.975 23.998,5.987 24.000,6.823 24.000 L 7.567 24.000 7.773 23.912 C 8.500 23.601,9.011 23.030,9.226 22.290 C 9.616 20.944,8.849 19.556,7.499 19.164 C 7.329 19.115,6.848 19.047,6.756 19.059 C 6.743 19.061,6.647 19.071,6.543 19.082 M7.108 21.156 C 7.210 21.224,7.307 21.378,7.331 21.511 C 7.367 21.716,7.227 21.968,7.025 22.064 C 6.919 22.114,6.722 22.116,6.605 22.067 C 6.205 21.900,6.180 21.329,6.564 21.126 C 6.728 21.039,6.950 21.051,7.108 21.156 " stroke="none" fill-rule="evenodd" /></svg>