<svg viewBox="0 0 24 24" fill="currentColor" xmlns="http://www.w3.org/2000/svg"><path d="M3.636 1.024 C 3.610 1.029,3.502 1.051,3.397 1.071 C 2.389 1.265,1.517 2.025,1.176 3.007 C 1.014 3.476,1.020 3.361,1.020 6.000 C 1.020 8.221,1.023 8.402,1.064 8.591 C 1.320 9.782,2.180 10.650,3.384 10.934 C 3.541 10.971,3.721 10.978,4.782 10.986 L 6.000 10.994 6.000 11.515 C 6.000 11.802,6.011 12.100,6.024 12.179 C 6.081 12.531,6.338 12.821,6.706 12.951 C 6.832 12.996,7.154 12.995,7.302 12.949 C 7.559 12.870,7.788 12.662,7.913 12.394 L 7.980 12.252 7.987 11.622 L 7.995 10.992 10.003 10.992 C 11.202 10.992,12.070 11.002,12.156 11.016 C 12.575 11.084,12.916 11.427,12.985 11.848 C 12.999 11.933,13.008 13.752,13.008 16.494 L 13.008 21.000 11.750 21.000 L 10.491 21.000 10.588 20.790 C 10.791 20.352,10.890 20.020,10.957 19.548 C 10.984 19.358,10.991 18.947,10.992 17.578 C 10.992 15.666,10.996 15.716,10.838 15.469 C 10.687 15.234,10.454 15.075,10.189 15.026 C 9.995 14.990,4.004 14.990,3.677 15.026 C 2.323 15.174,1.255 16.197,1.041 17.551 C 0.985 17.899,1.003 18.210,1.088 18.394 C 1.174 18.582,1.289 18.719,1.451 18.826 C 1.626 18.943,1.772 18.985,2.004 18.985 C 2.285 18.987,2.499 18.901,2.692 18.710 C 2.840 18.563,2.925 18.414,2.962 18.233 C 2.990 18.094,2.994 18.133,3.008 18.780 C 3.017 19.209,3.036 19.550,3.057 19.668 C 3.132 20.090,3.263 20.497,3.429 20.826 C 3.470 20.908,3.504 20.980,3.504 20.987 C 3.504 20.994,3.155 21.000,2.728 21.000 C 2.271 21.000,1.895 21.011,1.811 21.026 C 1.149 21.149,0.798 21.918,1.138 22.500 C 1.265 22.715,1.498 22.895,1.734 22.958 C 1.923 23.008,22.077 23.008,22.266 22.958 C 22.608 22.867,22.895 22.566,22.967 22.224 C 22.988 22.125,22.993 19.783,22.987 12.828 C 22.979 3.975,22.977 3.556,22.935 3.384 C 22.644 2.180,21.820 1.356,20.616 1.065 C 20.444 1.023,20.064 1.021,12.060 1.017 C 7.453 1.015,3.662 1.018,3.636 1.024 M4.992 3.462 C 4.993 4.478,5.085 4.930,5.403 5.484 C 5.682 5.971,6.029 6.318,6.516 6.597 C 7.926 7.406,9.742 6.929,10.574 5.532 C 10.704 5.315,10.829 5.008,10.903 4.728 C 10.976 4.455,10.977 4.444,10.986 3.726 L 10.996 3.000 15.560 3.000 C 20.449 3.001,20.228 2.995,20.470 3.119 C 20.606 3.189,20.811 3.394,20.881 3.530 C 20.985 3.733,20.999 3.844,21.000 4.434 L 21.000 4.992 19.518 4.992 C 18.671 4.993,17.964 5.003,17.868 5.017 C 17.426 5.079,17.079 5.421,17.020 5.852 C 16.944 6.411,17.313 6.905,17.868 6.983 C 17.964 6.997,18.671 7.007,19.518 7.008 L 21.000 7.008 21.000 8.004 L 21.000 9.000 19.482 9.000 C 18.612 9.000,17.903 9.010,17.821 9.024 C 17.469 9.081,17.179 9.338,17.049 9.706 C 17.004 9.832,17.005 10.154,17.051 10.302 C 17.130 10.559,17.338 10.788,17.606 10.913 L 17.748 10.980 19.374 10.987 L 21.000 10.993 21.000 12.001 L 21.000 13.008 20.375 13.008 C 19.712 13.008,19.531 13.025,19.195 13.118 C 17.970 13.458,17.116 14.507,17.016 15.794 C 17.004 15.958,16.993 17.196,16.993 18.546 L 16.992 21.000 15.997 21.000 L 15.001 21.000 14.994 16.302 C 14.987 11.876,14.984 11.594,14.943 11.424 C 14.783 10.758,14.509 10.258,14.077 9.844 C 13.607 9.393,12.971 9.095,12.331 9.025 C 12.176 9.009,10.714 9.000,7.987 9.000 C 3.585 8.999,3.771 9.004,3.530 8.881 C 3.394 8.811,3.189 8.606,3.119 8.470 C 2.999 8.236,3.001 8.266,3.001 6.000 C 3.001 3.734,2.999 3.764,3.119 3.530 C 3.189 3.394,3.393 3.189,3.530 3.119 C 3.728 3.017,3.825 3.004,4.422 3.002 L 4.992 3.000 4.992 3.462 M9.000 3.559 C 9.000 4.164,8.983 4.289,8.870 4.491 C 8.784 4.643,8.572 4.838,8.406 4.915 C 8.282 4.973,8.241 4.980,8.004 4.980 C 7.758 4.980,7.729 4.975,7.583 4.905 C 7.378 4.808,7.192 4.622,7.095 4.417 L 7.020 4.260 7.013 3.630 L 7.006 3.000 8.003 3.000 L 9.000 3.000 9.000 3.559 M21.000 18.000 L 21.000 21.000 20.004 21.000 L 19.007 21.000 19.014 18.366 L 19.020 15.732 19.085 15.594 C 19.162 15.428,19.357 15.216,19.509 15.130 C 19.709 15.018,19.817 15.003,20.430 15.002 L 21.000 15.000 21.000 18.000 M9.000 18.093 C 9.000 19.314,8.986 19.471,8.853 19.791 C 8.524 20.583,7.784 21.035,6.888 20.993 C 6.088 20.955,5.440 20.507,5.145 19.788 C 5.014 19.470,5.010 19.420,4.999 18.162 L 4.989 16.992 6.994 16.992 L 9.000 16.992 9.000 18.093 " stroke="none" fill-rule="evenodd" /></svg>