<svg viewBox="0 0 24 24" fill="currentColor" xmlns="http://www.w3.org/2000/svg"><path d="M3.861 2.018 C 3.459 2.062,3.090 2.417,3.024 2.821 C 3.011 2.900,3.000 3.238,3.000 3.572 L 3.000 4.180 2.946 4.194 C 2.823 4.226,2.413 4.451,2.227 4.589 C 1.634 5.028,1.243 5.632,1.065 6.384 C 1.027 6.546,1.022 6.744,1.014 8.388 C 1.008 9.633,1.014 10.273,1.032 10.404 C 1.124 11.074,1.453 11.712,1.948 12.181 C 2.208 12.428,2.644 12.705,2.910 12.791 L 3.000 12.820 3.000 17.433 C 3.000 20.659,3.008 22.090,3.026 22.189 C 3.130 22.751,3.705 23.107,4.266 22.958 C 4.592 22.871,4.871 22.592,4.958 22.266 C 4.986 22.160,4.991 21.399,4.992 17.478 C 4.992 14.018,4.999 12.816,5.019 12.816 C 5.034 12.816,5.145 12.769,5.266 12.712 C 6.164 12.287,6.766 11.501,6.953 10.511 C 6.992 10.306,6.996 10.112,6.996 8.496 C 6.996 6.509,6.996 6.515,6.832 6.034 C 6.736 5.750,6.661 5.598,6.489 5.337 C 6.182 4.869,5.708 4.476,5.179 4.248 L 4.995 4.168 4.987 3.458 L 4.980 2.748 4.913 2.606 C 4.825 2.416,4.710 2.281,4.548 2.173 C 4.345 2.039,4.126 1.989,3.861 2.018 M4.249 6.034 C 4.527 6.107,4.791 6.328,4.915 6.594 L 4.980 6.732 4.980 8.496 L 4.980 10.260 4.905 10.417 C 4.808 10.622,4.622 10.808,4.417 10.905 C 4.271 10.975,4.242 10.980,3.996 10.980 C 3.759 10.980,3.718 10.973,3.594 10.915 C 3.328 10.791,3.107 10.527,3.034 10.249 C 2.985 10.062,2.984 6.938,3.033 6.756 C 3.082 6.572,3.161 6.436,3.298 6.298 C 3.556 6.041,3.904 5.944,4.249 6.034 M14.392 7.045 C 13.847 7.148,13.382 7.402,12.960 7.827 C 12.863 7.925,12.647 8.166,12.479 8.364 C 12.028 8.898,11.935 8.971,11.685 8.994 C 11.515 9.009,11.359 8.969,11.232 8.877 C 11.181 8.840,11.035 8.685,10.909 8.534 C 10.606 8.170,10.465 8.074,10.149 8.019 C 9.535 7.910,8.949 8.457,9.008 9.084 C 9.033 9.351,9.125 9.520,9.480 9.942 C 9.899 10.443,10.383 10.765,10.939 10.914 C 11.150 10.970,11.215 10.976,11.616 10.977 C 12.020 10.977,12.081 10.971,12.291 10.915 C 12.922 10.744,13.372 10.416,13.979 9.684 C 14.474 9.087,14.624 8.981,14.938 9.006 C 15.212 9.028,15.297 9.099,15.812 9.737 C 15.974 9.938,16.179 10.168,16.267 10.250 C 16.623 10.577,17.016 10.799,17.441 10.913 C 17.654 10.970,17.718 10.976,18.120 10.977 C 18.527 10.977,18.584 10.972,18.802 10.913 C 19.433 10.743,19.851 10.432,20.520 9.635 C 20.958 9.114,21.066 9.029,21.315 9.006 C 21.485 8.991,21.641 9.031,21.768 9.123 C 21.819 9.160,21.965 9.315,22.091 9.466 C 22.394 9.830,22.535 9.926,22.851 9.981 C 23.469 10.090,24.055 9.540,23.990 8.911 C 23.968 8.696,23.909 8.554,23.753 8.349 C 23.215 7.634,22.715 7.261,22.061 7.086 C 21.850 7.030,21.785 7.024,21.384 7.023 C 20.980 7.023,20.919 7.029,20.709 7.085 C 20.303 7.195,19.954 7.384,19.612 7.680 C 19.515 7.764,19.249 8.049,19.022 8.314 C 18.794 8.579,18.568 8.826,18.520 8.864 C 18.386 8.965,18.236 9.008,18.063 8.994 C 17.788 8.972,17.703 8.901,17.188 8.263 C 16.753 7.724,16.452 7.465,16.015 7.256 C 15.671 7.091,15.397 7.030,14.952 7.018 C 14.688 7.012,14.525 7.019,14.392 7.045 M13.924 13.046 C 10.456 13.316,7.787 14.728,7.145 16.632 C 6.970 17.150,6.964 17.781,7.129 18.325 C 7.306 18.909,7.800 19.588,8.400 20.073 C 9.839 21.235,12.290 21.973,14.748 21.985 C 15.323 21.988,15.481 21.938,15.729 21.673 C 15.963 21.423,16.007 21.229,16.008 20.450 L 16.008 19.935 16.746 20.666 C 17.514 21.427,17.600 21.496,17.864 21.567 C 17.932 21.585,18.038 21.600,18.099 21.600 C 18.345 21.600,19.413 21.269,20.026 21.002 C 21.574 20.328,22.620 19.301,22.912 18.168 C 23.035 17.692,23.010 17.084,22.847 16.613 C 22.247 14.875,19.961 13.543,16.872 13.130 C 15.978 13.010,14.811 12.977,13.924 13.046 M15.924 15.035 C 17.577 15.168,19.044 15.601,20.028 16.248 C 20.394 16.489,20.765 16.862,20.890 17.115 C 21.000 17.338,21.024 17.521,20.968 17.715 C 20.796 18.307,19.857 18.988,18.657 19.393 L 18.390 19.483 17.025 18.115 C 16.266 17.354,15.604 16.710,15.533 16.664 C 15.364 16.554,15.218 16.513,15.000 16.513 C 14.782 16.513,14.636 16.554,14.467 16.663 C 14.266 16.794,14.142 16.953,14.051 17.196 C 14.010 17.307,14.006 17.420,13.998 18.637 L 13.989 19.958 13.900 19.950 C 13.411 19.909,12.649 19.783,12.180 19.665 C 10.301 19.194,8.940 18.239,9.008 17.439 C 9.029 17.189,9.156 16.976,9.466 16.667 C 9.773 16.362,10.022 16.188,10.488 15.954 C 11.936 15.225,13.979 14.880,15.924 15.035 " stroke="none" fill-rule="evenodd" /></svg>