<svg viewBox="0 0 24 24" fill="currentColor" xmlns="http://www.w3.org/2000/svg"><path d="M9.861 2.018 C 9.459 2.062,9.090 2.417,9.024 2.821 C 8.992 3.015,8.994 4.013,9.026 4.189 C 9.130 4.751,9.705 5.107,10.266 4.958 C 10.607 4.867,10.893 4.568,10.967 4.224 C 10.987 4.134,10.993 3.876,10.988 3.420 L 10.980 2.748 10.913 2.606 C 10.825 2.416,10.710 2.281,10.548 2.173 C 10.345 2.039,10.126 1.989,9.861 2.018 M13.872 2.020 C 13.684 2.043,13.604 2.072,13.452 2.173 C 13.290 2.281,13.175 2.416,13.087 2.606 L 13.020 2.748 13.020 12.000 L 13.020 21.252 13.087 21.394 C 13.212 21.662,13.441 21.870,13.698 21.949 C 13.846 21.995,14.168 21.996,14.294 21.951 C 14.545 21.863,14.743 21.704,14.867 21.491 C 14.983 21.294,14.999 21.138,15.000 20.233 L 15.000 19.405 15.714 20.116 C 16.491 20.890,16.542 20.929,16.843 20.979 C 17.164 21.032,17.466 20.933,17.699 20.699 C 17.997 20.402,18.072 19.988,17.902 19.580 C 17.855 19.468,17.672 19.275,16.424 18.024 L 15.000 16.595 15.000 14.802 L 15.000 13.008 16.302 13.008 L 17.603 13.008 19.032 14.432 C 20.588 15.984,20.531 15.936,20.855 15.980 C 21.524 16.072,22.071 15.522,21.980 14.852 C 21.938 14.549,21.902 14.500,21.128 13.724 L 20.418 13.013 21.303 13.002 C 22.285 12.990,22.308 12.986,22.549 12.826 C 22.710 12.719,22.825 12.583,22.913 12.394 C 22.973 12.267,22.980 12.225,22.980 12.000 C 22.980 11.775,22.973 11.733,22.913 11.606 C 22.825 11.417,22.710 11.281,22.549 11.174 C 22.308 11.014,22.285 11.010,21.303 10.998 L 20.418 10.987 21.128 10.276 C 21.902 9.500,21.938 9.451,21.980 9.148 C 22.025 8.818,21.918 8.503,21.684 8.283 C 21.459 8.069,21.168 7.977,20.855 8.020 C 20.531 8.064,20.588 8.016,19.032 9.568 L 17.603 10.992 16.302 10.992 L 15.000 10.992 15.000 9.198 L 15.000 7.405 16.424 5.976 C 17.680 4.716,17.855 4.533,17.903 4.418 C 18.073 4.010,17.998 3.599,17.699 3.301 C 17.466 3.067,17.164 2.968,16.843 3.021 C 16.542 3.071,16.491 3.110,15.714 3.884 L 15.000 4.595 15.000 3.767 C 14.999 2.862,14.983 2.706,14.867 2.509 C 14.664 2.161,14.274 1.970,13.872 2.020 M3.501 4.658 C 3.207 4.690,2.891 4.916,2.751 5.191 C 2.616 5.458,2.617 5.819,2.752 6.094 C 2.836 6.262,3.672 7.115,3.840 7.203 C 4.332 7.460,4.892 7.319,5.183 6.866 C 5.294 6.693,5.334 6.530,5.324 6.290 C 5.317 6.118,5.303 6.057,5.237 5.918 C 5.170 5.776,5.098 5.691,4.733 5.323 C 4.315 4.900,4.130 4.747,3.977 4.700 C 3.849 4.661,3.644 4.643,3.501 4.658 M9.840 8.009 C 9.355 8.025,8.829 8.152,8.345 8.368 C 7.261 8.852,6.423 9.854,6.136 11.006 C 6.038 11.399,6.015 11.585,6.015 12.000 C 6.015 12.546,6.097 12.983,6.290 13.474 C 6.762 14.670,7.780 15.557,9.047 15.877 C 9.480 15.986,10.074 16.020,10.302 15.950 C 10.559 15.870,10.788 15.662,10.913 15.394 C 10.973 15.267,10.980 15.225,10.980 15.000 C 10.980 14.775,10.973 14.733,10.913 14.606 C 10.825 14.417,10.710 14.281,10.549 14.173 C 10.376 14.059,10.253 14.025,9.890 13.993 C 9.132 13.926,8.542 13.540,8.220 12.900 C 8.061 12.584,8.010 12.365,8.010 12.000 C 8.010 11.635,8.061 11.416,8.220 11.100 C 8.542 10.460,9.132 10.074,9.890 10.007 C 10.253 9.975,10.376 9.941,10.549 9.827 C 10.710 9.719,10.825 9.583,10.913 9.394 C 10.973 9.267,10.980 9.225,10.980 9.000 C 10.980 8.775,10.973 8.733,10.913 8.606 C 10.825 8.416,10.710 8.281,10.548 8.173 C 10.349 8.041,10.164 7.998,9.840 8.009 M1.872 11.017 C 1.680 11.045,1.602 11.074,1.452 11.173 C 1.290 11.281,1.175 11.416,1.087 11.606 C 1.027 11.733,1.020 11.775,1.020 12.000 C 1.020 12.225,1.027 12.267,1.087 12.394 C 1.212 12.661,1.437 12.867,1.698 12.951 C 1.850 13.001,2.809 13.025,3.097 12.987 C 3.573 12.924,3.919 12.595,3.980 12.148 C 4.025 11.818,3.918 11.503,3.684 11.283 C 3.524 11.131,3.354 11.049,3.131 11.017 C 2.938 10.989,2.067 10.989,1.872 11.017 M4.224 16.671 C 3.895 16.725,3.795 16.793,3.275 17.314 C 2.773 17.818,2.705 17.916,2.661 18.200 C 2.584 18.695,2.857 19.139,3.346 19.311 C 3.472 19.356,3.794 19.355,3.942 19.309 C 4.134 19.250,4.289 19.126,4.733 18.677 C 5.098 18.309,5.170 18.224,5.237 18.082 C 5.379 17.783,5.357 17.405,5.183 17.134 C 5.051 16.929,4.852 16.776,4.632 16.709 C 4.531 16.679,4.307 16.658,4.224 16.671 M9.710 19.048 C 9.366 19.153,9.091 19.460,9.026 19.811 C 8.994 19.987,8.992 20.985,9.024 21.179 C 9.081 21.531,9.338 21.821,9.706 21.951 C 9.832 21.996,10.154 21.995,10.302 21.949 C 10.559 21.870,10.788 21.662,10.913 21.394 L 10.980 21.252 10.988 20.580 C 10.993 20.124,10.987 19.866,10.967 19.776 C 10.895 19.439,10.621 19.147,10.282 19.044 C 10.133 18.999,9.863 19.001,9.710 19.048 " stroke="none" fill-rule="evenodd"/></svg>