<svg viewBox="0 0 24 24" fill="currentColor" xmlns="http://www.w3.org/2000/svg"><path d="M5.568 1.034 C 4.661 1.180,3.908 1.681,3.436 2.454 C 3.381 2.543,3.319 2.656,3.298 2.706 C 3.129 3.095,3.064 3.327,3.026 3.677 C 2.990 4.003,2.990 19.997,3.026 20.323 C 3.166 21.610,4.076 22.621,5.376 22.935 C 5.547 22.976,5.871 22.979,11.892 22.986 C 18.925 22.994,18.449 23.004,18.956 22.835 C 20.063 22.465,20.847 21.489,20.974 20.323 C 21.010 19.997,21.010 4.003,20.974 3.677 C 20.834 2.390,19.924 1.379,18.624 1.065 C 18.453 1.023,18.135 1.021,12.072 1.017 C 8.492 1.015,5.642 1.023,5.568 1.034 M18.266 3.039 C 18.462 3.097,18.554 3.152,18.698 3.296 C 18.857 3.455,18.950 3.632,18.983 3.840 C 19.017 4.057,19.017 19.943,18.983 20.160 C 18.950 20.368,18.857 20.545,18.698 20.704 C 18.554 20.848,18.462 20.903,18.266 20.961 C 18.154 20.994,17.980 21.000,17.072 21.000 L 16.008 21.000 16.008 19.518 C 16.007 18.671,15.997 17.964,15.983 17.868 C 15.951 17.640,15.847 17.437,15.684 17.283 C 15.524 17.131,15.354 17.049,15.131 17.017 C 14.904 16.984,9.096 16.984,8.869 17.017 C 8.417 17.082,8.080 17.418,8.017 17.868 C 8.003 17.964,7.993 18.671,7.992 19.518 L 7.992 21.000 6.928 21.000 C 6.020 21.000,5.846 20.994,5.734 20.961 C 5.538 20.903,5.446 20.848,5.302 20.704 C 5.143 20.545,5.050 20.368,5.017 20.160 C 4.983 19.943,4.983 4.057,5.017 3.840 C 5.050 3.632,5.143 3.455,5.301 3.296 C 5.446 3.151,5.516 3.108,5.712 3.045 C 5.837 3.005,6.171 3.003,11.990 3.001 C 17.572 3.000,18.147 3.004,18.266 3.039 M7.872 5.020 C 7.684 5.043,7.604 5.072,7.452 5.173 C 7.290 5.281,7.175 5.416,7.087 5.606 C 7.027 5.733,7.020 5.775,7.020 6.000 C 7.020 6.225,7.027 6.267,7.087 6.394 C 7.175 6.583,7.290 6.719,7.451 6.826 C 7.624 6.941,7.771 6.984,7.995 6.986 C 8.244 6.987,8.419 6.932,8.598 6.796 C 8.865 6.592,9.000 6.325,9.000 6.000 C 9.000 5.674,8.865 5.408,8.596 5.203 C 8.390 5.046,8.151 4.985,7.872 5.020 M11.844 5.021 C 11.430 5.075,11.078 5.431,11.020 5.852 C 10.945 6.403,11.315 6.906,11.850 6.980 C 12.179 7.024,12.493 6.922,12.715 6.697 C 13.098 6.307,13.099 5.694,12.718 5.306 C 12.485 5.070,12.193 4.974,11.844 5.021 M15.861 5.017 C 15.448 5.066,15.086 5.420,15.021 5.840 C 14.896 6.641,15.723 7.246,16.454 6.888 C 17.043 6.600,17.184 5.800,16.730 5.320 C 16.501 5.079,16.206 4.976,15.861 5.017 M7.776 9.033 C 7.328 9.133,7.007 9.539,7.008 10.006 C 7.009 10.755,7.806 11.224,8.487 10.877 C 8.635 10.801,8.831 10.590,8.912 10.417 C 8.999 10.234,9.027 9.940,8.976 9.750 C 8.879 9.388,8.562 9.094,8.197 9.026 C 8.024 8.994,7.946 8.995,7.776 9.033 M11.800 9.024 C 11.468 9.084,11.174 9.350,11.049 9.706 C 11.004 9.832,11.005 10.154,11.051 10.302 C 11.169 10.687,11.533 10.966,11.942 10.987 C 12.265 11.004,12.518 10.906,12.727 10.682 C 13.305 10.065,12.917 9.069,12.077 9.013 C 11.989 9.008,11.864 9.012,11.800 9.024 M15.796 9.026 C 15.520 9.080,15.219 9.315,15.104 9.565 C 14.890 10.034,15.042 10.564,15.470 10.838 C 15.819 11.062,16.288 11.039,16.624 10.783 C 16.754 10.684,16.915 10.453,16.959 10.301 C 17.005 10.143,17.007 9.844,16.962 9.708 C 16.845 9.351,16.540 9.081,16.187 9.024 C 16.022 8.997,15.941 8.997,15.796 9.026 M7.687 13.054 C 7.280 13.193,7.009 13.568,7.008 13.994 C 7.007 14.870,8.050 15.319,8.691 14.718 C 8.916 14.508,9.013 14.261,8.996 13.937 C 8.973 13.513,8.699 13.168,8.283 13.042 C 8.130 12.996,7.840 13.002,7.687 13.054 M11.724 13.042 C 11.491 13.115,11.305 13.254,11.174 13.451 C 11.057 13.626,11.015 13.772,11.015 14.004 C 11.013 14.291,11.099 14.501,11.300 14.702 C 11.689 15.090,12.321 15.090,12.710 14.702 C 13.241 14.170,13.010 13.260,12.290 13.047 C 12.136 13.001,11.860 12.999,11.724 13.042 M15.710 13.046 C 15.130 13.231,14.849 13.876,15.104 14.435 C 15.179 14.597,15.403 14.821,15.565 14.896 C 16.129 15.154,16.771 14.876,16.962 14.292 C 17.007 14.156,17.005 13.857,16.959 13.699 C 16.915 13.547,16.754 13.316,16.624 13.217 C 16.446 13.081,16.279 13.023,16.044 13.015 C 15.897 13.011,15.790 13.021,15.710 13.046 M13.992 20.004 L 13.992 21.000 12.000 21.000 L 10.008 21.000 10.008 20.004 L 10.008 19.008 12.000 19.008 L 13.992 19.008 13.992 20.004 " stroke="none" fill-rule="evenodd" /></svg>