<svg viewBox="0 0 24 24" fill="currentColor" xmlns="http://www.w3.org/2000/svg"><path d="M11.724 1.040 C 11.486 1.119,11.304 1.255,11.173 1.451 C 11.003 1.708,11.004 1.700,11.004 3.000 C 11.004 4.300,11.003 4.292,11.173 4.549 C 11.281 4.710,11.417 4.825,11.606 4.913 C 11.733 4.973,11.775 4.980,12.000 4.980 C 12.225 4.980,12.267 4.973,12.394 4.913 C 12.583 4.825,12.719 4.710,12.827 4.549 C 12.997 4.292,12.996 4.300,12.996 3.000 C 12.996 1.700,12.997 1.708,12.827 1.451 C 12.719 1.289,12.582 1.174,12.394 1.088 C 12.279 1.035,12.211 1.021,12.036 1.015 C 11.903 1.011,11.783 1.021,11.724 1.040 M4.632 3.981 C 4.317 4.082,4.067 4.338,3.974 4.654 C 3.897 4.916,3.943 5.230,4.089 5.455 C 4.134 5.524,4.531 5.939,4.971 6.377 C 5.844 7.245,5.885 7.277,6.193 7.320 C 6.519 7.366,6.802 7.272,7.039 7.039 C 7.266 6.817,7.366 6.515,7.320 6.192 C 7.277 5.885,7.245 5.843,6.377 4.971 C 5.939 4.531,5.524 4.134,5.455 4.089 C 5.225 3.939,4.896 3.896,4.632 3.981 M18.797 3.973 C 18.728 3.992,18.614 4.044,18.545 4.089 C 18.476 4.134,18.061 4.531,17.623 4.971 C 16.752 5.847,16.724 5.884,16.679 6.200 C 16.634 6.515,16.735 6.819,16.958 7.042 C 17.181 7.265,17.485 7.366,17.800 7.321 C 18.116 7.276,18.153 7.248,19.029 6.377 C 19.469 5.939,19.866 5.524,19.911 5.455 C 20.057 5.231,20.099 4.945,20.027 4.668 C 19.982 4.494,19.921 4.390,19.778 4.241 C 19.522 3.974,19.161 3.875,18.797 3.973 M11.484 7.023 C 11.116 7.063,10.612 7.182,10.260 7.312 C 10.019 7.401,9.536 7.642,9.401 7.741 C 9.198 7.891,9.057 8.165,9.032 8.460 C 8.995 8.897,9.287 9.330,9.708 9.463 C 10.026 9.563,10.213 9.538,10.620 9.338 C 11.102 9.101,11.513 9.000,12.000 9.000 C 13.469 9.000,14.725 10.073,14.966 11.533 C 14.997 11.724,15.001 11.842,14.986 12.120 C 14.950 12.787,14.956 12.878,15.047 13.068 C 15.241 13.472,15.663 13.700,16.090 13.632 C 16.275 13.603,16.336 13.579,16.506 13.469 C 16.663 13.367,16.807 13.189,16.873 13.012 C 16.978 12.732,17.025 11.943,16.967 11.436 C 16.871 10.599,16.549 9.772,16.037 9.048 C 15.830 8.756,15.320 8.241,15.012 8.013 C 14.327 7.507,13.651 7.216,12.804 7.065 C 12.616 7.031,11.682 7.002,11.484 7.023 M19.872 11.016 C 19.678 11.045,19.601 11.074,19.452 11.173 C 19.290 11.281,19.175 11.416,19.087 11.606 C 19.027 11.733,19.020 11.775,19.020 12.000 C 19.020 12.225,19.027 12.267,19.087 12.394 C 19.175 12.583,19.290 12.719,19.451 12.827 C 19.708 12.997,19.700 12.996,21.000 12.996 C 22.300 12.996,22.292 12.997,22.549 12.827 C 22.710 12.719,22.825 12.583,22.913 12.394 C 22.973 12.267,22.980 12.225,22.980 12.000 C 22.980 11.775,22.973 11.733,22.913 11.606 C 22.825 11.417,22.710 11.281,22.549 11.174 C 22.299 11.008,22.310 11.009,21.096 11.002 C 20.495 10.999,19.945 11.005,19.872 11.016 M6.396 11.031 C 4.758 11.204,3.227 12.060,2.240 13.358 C 0.937 15.070,0.647 17.306,1.468 19.311 C 1.670 19.804,2.066 20.466,2.306 20.710 C 2.600 21.008,3.059 21.081,3.439 20.891 C 3.785 20.717,3.983 20.394,3.987 19.997 C 3.989 19.759,3.936 19.618,3.725 19.298 C 3.255 18.588,3.040 17.939,3.008 17.136 C 2.964 15.989,3.412 14.897,4.257 14.094 C 4.789 13.588,5.462 13.239,6.212 13.079 C 6.512 13.014,7.150 12.990,7.480 13.030 C 8.338 13.135,9.130 13.512,9.753 14.112 C 10.359 14.696,10.693 15.278,10.908 16.127 C 10.942 16.263,10.991 16.415,11.015 16.463 C 11.101 16.631,11.273 16.794,11.467 16.890 L 11.649 16.980 12.479 16.994 C 13.230 17.007,13.326 17.013,13.500 17.061 C 13.857 17.158,14.170 17.338,14.423 17.591 C 14.652 17.820,14.823 18.111,14.932 18.457 C 14.981 18.614,14.988 18.683,14.987 19.008 C 14.985 19.349,14.980 19.397,14.918 19.584 C 14.793 19.960,14.687 20.132,14.377 20.458 C 14.247 20.595,14.143 20.730,14.099 20.820 C 14.033 20.954,14.028 20.983,14.028 21.240 C 14.028 21.487,14.035 21.530,14.090 21.648 C 14.367 22.236,15.123 22.417,15.622 22.014 C 16.379 21.403,16.916 20.332,16.987 19.290 C 17.051 18.355,16.809 17.483,16.264 16.680 C 16.099 16.438,15.593 15.936,15.312 15.737 C 15.065 15.563,14.609 15.325,14.340 15.230 C 13.931 15.087,13.586 15.027,13.054 15.008 L 12.655 14.993 12.565 14.762 C 12.296 14.077,11.843 13.386,11.293 12.819 C 10.527 12.030,9.547 11.463,8.484 11.192 C 7.983 11.064,7.756 11.037,7.104 11.029 C 6.767 11.025,6.449 11.026,6.396 11.031 M6.796 18.026 C 6.617 18.061,6.444 18.157,6.301 18.301 C 6.150 18.451,6.062 18.615,6.024 18.815 C 5.993 18.980,5.993 20.989,6.024 21.179 C 6.081 21.531,6.338 21.821,6.706 21.951 C 6.832 21.996,7.154 21.995,7.302 21.949 C 7.559 21.870,7.788 21.662,7.913 21.394 L 7.980 21.252 7.987 20.055 C 7.994 18.727,7.993 18.711,7.838 18.470 C 7.611 18.117,7.208 17.945,6.796 18.026 M10.687 19.054 C 10.382 19.158,10.137 19.411,10.044 19.718 C 10.015 19.816,10.009 20.037,10.009 21.000 C 10.009 22.255,10.011 22.282,10.138 22.500 C 10.171 22.554,10.243 22.645,10.299 22.701 C 10.864 23.267,11.826 22.966,11.976 22.177 C 12.008 22.009,12.008 19.991,11.976 19.823 C 11.884 19.339,11.476 19.005,10.982 19.010 C 10.886 19.011,10.757 19.030,10.687 19.054 " stroke="none" fill-rule="evenodd"/></svg>