<svg viewBox="0 0 24 24" fill="currentColor" xmlns="http://www.w3.org/2000/svg"><path d="M3.303 1.971 C 2.975 2.014,2.675 2.176,2.409 2.455 C 1.954 2.929,1.673 3.594,1.323 5.016 C 0.895 6.755,0.835 6.992,0.746 7.287 C 0.693 7.460,0.609 7.698,0.559 7.815 C 0.473 8.016,0.462 8.030,0.372 8.059 C 0.319 8.076,0.217 8.131,0.144 8.181 L 0.012 8.273 0.012 9.000 L 0.012 9.727 0.144 9.819 C 0.317 9.939,0.486 9.987,0.734 9.986 C 1.381 9.984,1.900 9.593,2.291 8.814 C 2.570 8.258,2.678 7.895,3.191 5.772 C 3.347 5.129,3.505 4.560,3.527 4.560 C 3.554 4.560,3.770 5.369,3.996 6.320 C 4.444 8.203,4.666 8.805,5.127 9.380 C 5.350 9.658,5.659 9.867,5.970 9.949 C 6.151 9.997,6.547 9.997,6.728 9.949 C 7.140 9.839,7.455 9.592,7.745 9.150 C 8.102 8.606,8.301 8.022,8.703 6.336 C 8.916 5.440,9.127 4.636,9.167 4.563 C 9.188 4.525,9.326 5.009,9.517 5.796 C 9.983 7.719,10.124 8.210,10.353 8.698 C 10.672 9.378,11.117 9.819,11.614 9.948 C 11.814 9.999,12.186 9.999,12.385 9.948 C 12.779 9.846,13.116 9.576,13.405 9.134 C 13.771 8.572,13.931 8.078,14.484 5.796 C 14.674 5.008,14.812 4.524,14.833 4.563 C 14.871 4.632,15.084 5.446,15.290 6.312 C 15.617 7.687,15.781 8.231,16.018 8.726 C 16.351 9.423,16.748 9.809,17.272 9.949 C 17.453 9.997,17.849 9.997,18.030 9.949 C 18.341 9.867,18.650 9.658,18.873 9.380 C 19.333 8.806,19.548 8.227,19.993 6.360 C 20.230 5.368,20.446 4.560,20.473 4.560 C 20.495 4.560,20.654 5.131,20.808 5.772 C 21.256 7.625,21.380 8.069,21.588 8.554 C 21.998 9.513,22.550 9.984,23.266 9.986 C 23.514 9.987,23.683 9.939,23.856 9.819 L 23.988 9.727 23.988 9.000 L 23.988 8.273 23.856 8.181 C 23.783 8.131,23.681 8.076,23.628 8.059 C 23.538 8.030,23.527 8.016,23.441 7.815 C 23.317 7.524,23.188 7.090,23.002 6.336 C 22.916 5.986,22.769 5.392,22.677 5.016 C 22.385 3.829,22.121 3.133,21.798 2.698 C 21.420 2.191,21.007 1.961,20.472 1.961 C 20.058 1.961,19.739 2.090,19.426 2.383 C 18.948 2.829,18.629 3.549,18.280 4.968 C 17.889 6.554,17.756 7.081,17.704 7.248 L 17.648 7.428 17.594 7.251 C 17.510 6.976,17.391 6.507,17.207 5.736 C 17.115 5.347,16.989 4.839,16.928 4.608 C 16.511 3.028,16.025 2.265,15.281 2.026 C 15.117 1.974,15.039 1.963,14.819 1.963 C 14.588 1.962,14.528 1.971,14.350 2.033 C 13.975 2.162,13.695 2.397,13.423 2.812 C 13.073 3.346,12.865 3.963,12.468 5.634 C 12.246 6.568,12.027 7.392,12.000 7.392 C 11.973 7.392,11.756 6.573,11.521 5.592 C 11.125 3.932,10.925 3.344,10.579 2.815 C 10.307 2.400,10.012 2.154,9.633 2.026 C 9.364 1.936,9.002 1.935,8.722 2.025 C 7.934 2.279,7.444 3.094,6.999 4.896 C 6.926 5.193,6.774 5.809,6.661 6.264 C 6.549 6.719,6.433 7.168,6.405 7.260 L 6.352 7.428 6.296 7.248 C 6.264 7.149,6.158 6.739,6.058 6.336 C 5.959 5.933,5.806 5.318,5.720 4.968 C 5.446 3.860,5.221 3.252,4.908 2.783 C 4.497 2.165,3.945 1.886,3.303 1.971 M10.073 11.460 C 9.113 11.659,8.379 12.295,8.040 13.221 L 7.975 13.398 7.785 13.464 C 7.251 13.649,6.782 14.012,6.457 14.493 C 5.921 15.287,5.860 16.299,6.298 17.166 L 6.428 17.423 6.325 17.604 C 5.987 18.196,5.914 18.994,6.135 19.676 C 6.385 20.449,7.006 21.086,7.779 21.362 C 7.957 21.426,7.990 21.446,8.004 21.501 C 8.034 21.622,8.208 22.007,8.296 22.145 C 8.720 22.810,9.385 23.256,10.133 23.376 C 10.401 23.420,10.927 23.395,11.171 23.329 C 11.386 23.270,11.644 23.157,11.857 23.027 L 12.000 22.941 12.143 23.027 C 12.356 23.157,12.614 23.270,12.829 23.329 C 13.071 23.395,13.607 23.420,13.858 23.377 C 14.629 23.245,15.286 22.808,15.699 22.152 C 15.793 22.002,15.941 21.684,15.985 21.536 C 16.014 21.439,16.019 21.435,16.222 21.362 C 16.894 21.122,17.426 20.636,17.738 19.980 C 17.888 19.664,17.947 19.444,17.981 19.080 C 18.004 18.826,18.002 18.739,17.970 18.513 C 17.922 18.184,17.812 17.843,17.675 17.604 L 17.572 17.423 17.702 17.166 C 18.074 16.430,18.091 15.599,17.750 14.869 C 17.577 14.498,17.383 14.237,17.092 13.984 C 16.804 13.733,16.539 13.576,16.215 13.464 L 16.025 13.398 15.949 13.197 C 15.594 12.264,14.862 11.641,13.908 11.460 C 13.313 11.348,12.599 11.488,12.128 11.811 C 12.072 11.849,12.018 11.880,12.006 11.880 C 11.993 11.880,11.894 11.826,11.785 11.761 C 11.569 11.631,11.412 11.566,11.136 11.491 C 10.900 11.427,10.313 11.410,10.073 11.460 M10.795 13.494 C 10.852 13.531,10.911 13.599,10.941 13.662 L 10.992 13.767 10.992 17.421 C 10.992 20.958,10.991 21.077,10.947 21.163 C 10.782 21.485,10.337 21.493,10.061 21.180 C 9.925 21.025,9.888 20.889,9.891 20.556 C 9.895 20.261,9.870 20.170,9.725 19.949 C 9.590 19.742,9.379 19.596,9.132 19.539 C 9.066 19.524,8.904 19.513,8.772 19.516 C 8.572 19.521,8.513 19.513,8.421 19.472 C 8.097 19.325,7.935 19.002,8.027 18.685 C 8.073 18.527,8.181 18.396,8.376 18.264 C 8.728 18.025,8.904 17.645,8.838 17.264 C 8.786 16.961,8.633 16.735,8.353 16.549 C 8.162 16.422,8.056 16.279,8.014 16.094 C 7.948 15.799,8.116 15.489,8.414 15.357 C 8.490 15.323,8.586 15.311,8.836 15.306 C 9.155 15.300,9.161 15.299,9.341 15.210 C 9.537 15.113,9.707 14.951,9.796 14.777 C 9.872 14.627,9.914 14.387,9.897 14.193 C 9.875 13.948,9.931 13.784,10.090 13.621 C 10.237 13.471,10.372 13.414,10.564 13.424 C 10.662 13.429,10.726 13.448,10.795 13.494 M13.670 13.456 C 13.750 13.483,13.828 13.537,13.910 13.621 C 14.069 13.784,14.125 13.947,14.103 14.193 C 14.064 14.643,14.268 15.016,14.659 15.210 C 14.839 15.299,14.845 15.300,15.164 15.306 C 15.415 15.312,15.510 15.323,15.587 15.357 C 15.893 15.493,16.067 15.840,15.975 16.136 C 15.921 16.311,15.827 16.429,15.645 16.550 C 15.456 16.676,15.335 16.807,15.251 16.981 C 15.027 17.438,15.179 17.962,15.624 18.264 C 15.819 18.396,15.927 18.527,15.973 18.685 C 16.065 19.002,15.903 19.325,15.579 19.472 C 15.487 19.513,15.428 19.521,15.228 19.516 C 14.872 19.509,14.673 19.567,14.457 19.742 C 14.346 19.832,14.214 20.021,14.149 20.184 C 14.115 20.267,14.106 20.352,14.109 20.556 C 14.113 20.882,14.072 21.029,13.935 21.184 C 13.663 21.493,13.216 21.482,13.053 21.163 C 13.009 21.077,13.008 20.958,13.008 17.406 L 13.008 13.737 13.077 13.629 C 13.200 13.435,13.419 13.371,13.670 13.456 " stroke="none" fill-rule="evenodd" /></svg>