<svg viewBox="0 0 24 24" fill="currentColor" xmlns="http://www.w3.org/2000/svg"><path d="M7.687 1.054 C 7.464 1.130,7.257 1.299,7.138 1.502 C 6.963 1.799,6.966 2.215,7.144 2.506 C 7.178 2.560,7.508 2.908,7.879 3.280 L 8.552 3.956 8.430 4.204 C 8.163 4.745,8.048 5.198,8.015 5.844 C 8.003 6.081,7.993 6.309,7.993 6.349 C 7.992 6.416,7.976 6.429,7.782 6.525 C 7.200 6.811,6.580 7.292,6.206 7.747 L 6.088 7.891 5.966 7.849 C 5.333 7.631,4.689 7.064,4.361 6.434 C 4.143 6.017,4.044 5.656,4.006 5.140 C 3.977 4.753,3.945 4.630,3.827 4.451 C 3.719 4.290,3.583 4.175,3.394 4.087 C 3.267 4.027,3.225 4.020,3.000 4.020 C 2.775 4.020,2.733 4.027,2.606 4.087 C 2.417 4.175,2.281 4.290,2.174 4.451 C 2.043 4.649,2.014 4.767,2.015 5.109 C 2.017 6.032,2.302 6.959,2.832 7.764 C 3.342 8.538,4.002 9.119,4.838 9.530 L 5.176 9.696 5.134 9.870 C 5.044 10.235,5.015 10.542,5.000 11.274 L 4.984 12.000 3.469 12.000 C 2.478 12.000,1.904 12.009,1.811 12.026 C 1.149 12.149,0.798 12.918,1.138 13.500 C 1.214 13.628,1.373 13.787,1.504 13.864 C 1.720 13.990,1.738 13.991,3.423 13.992 C 4.827 13.992,4.988 13.996,5.001 14.030 C 5.009 14.051,5.016 14.158,5.016 14.267 C 5.016 14.775,5.141 15.513,5.325 16.103 C 5.352 16.188,5.372 16.260,5.369 16.263 C 5.366 16.265,5.229 16.326,5.064 16.397 C 3.453 17.092,2.304 18.585,2.053 20.307 C 2.004 20.647,2.001 21.144,2.048 21.294 C 2.127 21.549,2.339 21.793,2.576 21.901 C 2.829 22.017,3.171 22.017,3.425 21.901 C 3.601 21.820,3.801 21.624,3.889 21.446 C 3.943 21.335,3.967 21.243,3.985 21.071 C 3.998 20.946,4.019 20.746,4.032 20.627 C 4.097 20.011,4.413 19.374,4.893 18.891 C 5.150 18.633,5.384 18.463,5.703 18.303 C 5.894 18.207,6.308 18.055,6.320 18.076 C 6.356 18.136,6.611 18.453,6.791 18.658 C 7.186 19.111,7.761 19.595,8.316 19.942 C 8.611 20.127,9.243 20.438,9.560 20.555 C 10.074 20.745,10.676 20.890,11.220 20.955 C 11.560 20.996,12.440 20.996,12.780 20.955 C 13.605 20.856,14.326 20.641,15.084 20.268 C 15.902 19.866,16.629 19.315,17.203 18.664 C 17.387 18.454,17.642 18.140,17.680 18.076 C 17.692 18.055,18.106 18.207,18.297 18.303 C 18.616 18.462,18.850 18.633,19.104 18.888 C 19.587 19.374,19.903 20.011,19.968 20.627 C 19.981 20.746,20.002 20.946,20.015 21.071 C 20.045 21.360,20.129 21.541,20.316 21.717 C 20.542 21.932,20.832 22.023,21.148 21.980 C 21.519 21.929,21.839 21.656,21.952 21.294 C 21.999 21.144,21.996 20.647,21.947 20.307 C 21.696 18.585,20.546 17.092,18.936 16.397 C 18.771 16.326,18.633 16.264,18.629 16.260 C 18.625 16.257,18.644 16.188,18.671 16.107 C 18.843 15.597,18.984 14.771,18.984 14.276 C 18.984 14.162,18.991 14.051,18.999 14.030 C 19.012 13.996,19.173 13.992,20.577 13.992 C 21.841 13.991,22.164 13.985,22.266 13.958 C 22.592 13.871,22.871 13.592,22.958 13.266 C 23.107 12.705,22.751 12.130,22.189 12.026 C 22.096 12.009,21.522 12.000,20.531 12.000 L 19.016 12.000 19.000 11.274 C 18.985 10.539,18.955 10.231,18.865 9.864 C 18.841 9.765,18.822 9.684,18.824 9.684 C 18.862 9.680,19.345 9.431,19.524 9.323 C 19.869 9.115,20.099 8.939,20.390 8.659 C 21.211 7.868,21.701 6.945,21.904 5.808 C 21.931 5.655,21.945 5.441,21.946 5.160 L 21.948 4.740 21.873 4.583 C 21.791 4.408,21.598 4.200,21.447 4.123 C 21.119 3.956,20.735 3.971,20.437 4.162 C 20.125 4.363,19.969 4.679,19.968 5.112 C 19.967 5.439,19.841 5.957,19.679 6.299 C 19.344 7.004,18.751 7.561,18.034 7.844 L 17.913 7.892 17.795 7.747 C 17.425 7.297,16.796 6.809,16.218 6.525 C 16.024 6.429,16.008 6.416,16.007 6.349 C 16.007 6.309,15.997 6.081,15.985 5.844 C 15.952 5.198,15.837 4.745,15.570 4.204 L 15.448 3.956 16.121 3.280 C 16.492 2.908,16.822 2.560,16.856 2.506 C 17.087 2.130,17.021 1.619,16.701 1.299 C 16.380 0.977,15.872 0.912,15.494 1.144 C 15.440 1.178,15.092 1.508,14.720 1.878 L 14.044 2.552 13.853 2.452 C 13.481 2.258,13.009 2.107,12.564 2.038 C 12.458 2.022,12.205 2.008,12.000 2.008 C 11.795 2.008,11.542 2.022,11.436 2.038 C 10.991 2.107,10.519 2.258,10.147 2.452 L 9.956 2.552 9.280 1.878 C 8.908 1.508,8.560 1.178,8.506 1.144 C 8.284 1.008,7.935 0.969,7.687 1.054 M12.493 4.056 C 12.845 4.146,13.131 4.310,13.402 4.576 C 13.752 4.919,13.992 5.442,13.992 5.861 L 13.992 6.000 12.000 6.000 L 10.008 6.000 10.008 5.862 C 10.008 5.786,10.029 5.638,10.055 5.532 C 10.248 4.729,10.919 4.122,11.741 4.008 C 11.942 3.981,12.281 4.002,12.493 4.056 M14.499 8.036 C 15.796 8.299,16.736 9.243,16.956 10.505 C 16.986 10.675,16.992 11.027,16.992 12.550 C 16.992 13.693,16.982 14.466,16.967 14.593 C 16.727 16.519,15.385 18.149,13.543 18.751 C 13.361 18.810,13.166 18.866,13.111 18.875 L 13.009 18.892 13.002 14.852 C 12.994 10.346,13.009 10.726,12.826 10.451 C 12.719 10.290,12.583 10.175,12.394 10.087 C 12.267 10.027,12.225 10.020,12.000 10.020 C 11.775 10.020,11.733 10.027,11.606 10.087 C 11.417 10.175,11.281 10.290,11.174 10.451 C 10.991 10.726,11.006 10.346,10.998 14.852 L 10.991 18.892 10.889 18.875 C 10.555 18.821,9.802 18.513,9.408 18.270 C 8.311 17.595,7.473 16.475,7.165 15.274 C 7.019 14.704,7.025 14.816,7.015 12.689 C 7.005 10.551,7.006 10.534,7.142 10.104 C 7.500 8.969,8.501 8.145,9.675 8.019 C 9.975 7.987,14.331 8.002,14.499 8.036 " stroke="none" fill-rule="evenodd" /></svg>