<svg viewBox="0 0 24 24" fill="currentColor" xmlns="http://www.w3.org/2000/svg"><path d="M13.428 1.044 C 12.829 1.127,12.138 1.330,11.640 1.568 C 11.270 1.746,11.065 2.017,11.019 2.387 C 10.953 2.917,11.313 3.388,11.854 3.484 C 12.053 3.518,12.241 3.486,12.487 3.373 C 12.835 3.215,13.309 3.075,13.678 3.022 C 13.915 2.988,14.277 3.005,14.484 3.060 C 14.631 3.099,15.120 3.327,15.120 3.356 C 15.119 3.365,15.026 3.412,14.913 3.462 C 14.655 3.574,14.276 3.798,14.000 4.003 C 13.728 4.205,13.205 4.728,13.003 5.000 C 12.423 5.782,12.102 6.644,12.019 7.641 C 11.974 8.188,12.041 8.440,12.301 8.699 C 12.753 9.151,13.492 9.070,13.838 8.530 C 13.942 8.367,13.985 8.202,14.004 7.884 C 14.023 7.558,14.072 7.294,14.159 7.044 C 14.424 6.280,14.967 5.663,15.688 5.306 C 15.796 5.253,15.913 5.203,15.950 5.193 L 16.016 5.177 16.000 6.266 C 15.971 8.240,15.855 9.651,15.587 11.280 C 15.511 11.745,15.345 12.599,15.329 12.615 C 15.324 12.620,15.236 12.591,15.133 12.551 C 14.651 12.365,13.855 12.162,13.308 12.086 C 12.365 11.954,11.378 11.966,10.464 12.122 C 7.613 12.606,5.109 14.506,3.875 17.123 C 3.541 17.831,3.253 18.729,3.141 19.410 C 3.126 19.506,3.106 19.584,3.098 19.584 C 3.090 19.584,2.987 19.507,2.868 19.414 C 2.400 19.044,2.291 18.997,1.952 19.016 C 1.768 19.026,1.704 19.041,1.569 19.106 C 1.365 19.203,1.203 19.366,1.099 19.579 C 1.024 19.732,1.020 19.753,1.021 20.004 C 1.022 20.241,1.029 20.282,1.087 20.403 C 1.175 20.584,1.300 20.721,1.592 20.956 C 2.207 21.451,2.792 21.745,3.437 21.885 C 3.563 21.913,3.697 21.947,3.734 21.961 C 3.826 21.996,4.857 21.995,5.117 21.960 C 5.806 21.867,6.371 21.657,6.946 21.281 C 7.066 21.202,7.348 20.995,7.572 20.820 C 8.041 20.455,8.335 20.257,8.521 20.183 C 8.904 20.030,9.330 19.973,9.781 20.015 C 10.414 20.074,10.682 20.208,11.481 20.865 C 12.126 21.395,12.638 21.676,13.260 21.840 C 13.666 21.947,13.996 21.987,14.484 21.987 C 15.480 21.986,16.200 21.776,16.980 21.256 C 17.099 21.177,17.380 20.970,17.604 20.795 C 18.057 20.443,18.296 20.282,18.494 20.194 C 19.084 19.933,19.965 19.938,20.556 20.206 C 20.734 20.287,20.841 20.358,21.162 20.610 C 21.497 20.873,21.622 20.943,21.820 20.978 C 22.263 21.058,22.703 20.827,22.909 20.408 C 22.972 20.281,22.978 20.244,22.979 20.016 C 22.980 19.740,22.954 19.644,22.819 19.433 C 22.741 19.311,22.310 18.948,21.970 18.719 C 21.594 18.465,21.099 18.245,20.665 18.138 L 20.534 18.106 20.388 17.735 C 20.064 16.911,19.671 16.210,19.151 15.528 C 18.652 14.874,18.046 14.272,17.412 13.802 C 17.280 13.704,17.168 13.620,17.162 13.616 C 17.157 13.612,17.192 13.433,17.240 13.218 C 17.731 11.040,17.956 8.973,17.992 6.318 C 18.004 5.476,18.015 5.184,18.036 5.184 C 18.097 5.184,18.578 5.444,18.764 5.579 C 19.163 5.866,19.536 6.324,19.729 6.762 C 19.902 7.156,19.948 7.366,20.013 8.056 C 20.039 8.332,20.126 8.530,20.299 8.702 C 20.690 9.089,21.312 9.089,21.700 8.702 C 21.928 8.474,21.988 8.300,21.986 7.876 C 21.982 7.045,21.732 6.177,21.282 5.428 C 20.779 4.589,19.997 3.884,19.122 3.480 C 18.994 3.421,18.889 3.366,18.888 3.358 C 18.888 3.337,19.189 3.175,19.328 3.123 C 19.524 3.050,19.802 3.000,20.011 3.000 C 20.394 3.000,20.950 3.136,21.480 3.360 C 21.798 3.495,21.936 3.519,22.149 3.481 C 22.623 3.395,22.950 3.043,22.985 2.584 C 23.010 2.254,22.862 1.899,22.627 1.726 C 22.257 1.452,21.236 1.124,20.462 1.030 C 20.151 0.992,19.551 1.016,19.244 1.078 C 18.490 1.230,17.853 1.566,17.178 2.168 L 16.993 2.334 16.793 2.145 C 16.161 1.547,15.299 1.134,14.473 1.033 C 14.209 1.001,13.702 1.006,13.428 1.044 M5.724 3.014 C 4.728 3.107,3.918 3.467,3.245 4.114 C 2.434 4.894,2.014 5.877,2.014 6.999 C 2.013 8.699,3.030 10.154,4.639 10.754 C 6.065 11.286,7.729 10.917,8.819 9.827 C 9.586 9.060,9.987 8.089,9.986 6.999 C 9.986 6.584,9.944 6.276,9.837 5.904 C 9.412 4.418,8.163 3.304,6.649 3.059 C 6.439 3.025,5.891 2.998,5.724 3.014 M6.512 5.063 C 7.145 5.225,7.701 5.755,7.911 6.396 C 7.993 6.645,8.017 7.140,7.960 7.407 C 7.805 8.136,7.253 8.727,6.535 8.933 C 6.380 8.978,6.288 8.987,6.000 8.987 C 5.712 8.987,5.620 8.978,5.465 8.933 C 4.747 8.727,4.187 8.128,4.041 7.410 C 3.983 7.121,4.005 6.653,4.089 6.396 C 4.327 5.670,4.975 5.120,5.717 5.016 C 5.925 4.987,6.302 5.009,6.512 5.063 M13.116 14.073 C 15.373 14.469,17.179 15.784,18.232 17.798 C 18.316 17.958,18.384 18.099,18.384 18.112 C 18.384 18.125,18.330 18.148,18.264 18.163 C 18.063 18.210,17.688 18.358,17.448 18.486 C 17.147 18.646,16.882 18.826,16.466 19.152 C 15.789 19.681,15.534 19.829,15.120 19.934 C 14.975 19.971,14.854 19.980,14.496 19.980 C 13.684 19.980,13.410 19.867,12.600 19.199 C 12.209 18.877,11.788 18.591,11.473 18.432 C 10.502 17.945,9.139 17.865,8.043 18.231 C 7.540 18.399,7.086 18.665,6.441 19.170 C 6.028 19.493,5.764 19.678,5.599 19.761 C 5.456 19.833,5.110 19.950,5.093 19.933 C 5.056 19.896,5.222 19.183,5.369 18.745 C 5.862 17.283,6.845 16.005,8.136 15.148 C 8.453 14.938,9.069 14.615,9.420 14.476 C 10.019 14.239,10.680 14.081,11.388 14.007 C 11.441 14.002,11.770 14.000,12.120 14.004 C 12.681 14.010,12.798 14.018,13.116 14.073 " stroke="none" fill-rule="evenodd" /></svg>