<svg viewBox="0 0 24 24" fill="currentColor" xmlns="http://www.w3.org/2000/svg"><path d="M11.724 1.040 C 11.486 1.119,11.304 1.255,11.173 1.451 C 11.003 1.708,11.004 1.700,11.004 3.000 C 11.004 4.300,11.003 4.292,11.173 4.549 C 11.281 4.710,11.417 4.825,11.606 4.913 C 11.733 4.973,11.775 4.980,12.000 4.980 C 12.225 4.980,12.267 4.973,12.394 4.913 C 12.583 4.825,12.719 4.710,12.827 4.549 C 12.997 4.292,12.996 4.300,12.996 3.000 C 12.996 1.700,12.997 1.708,12.827 1.451 C 12.719 1.289,12.582 1.174,12.394 1.088 C 12.279 1.035,12.211 1.021,12.036 1.015 C 11.903 1.011,11.783 1.021,11.724 1.040 M4.632 3.981 C 4.317 4.082,4.067 4.338,3.974 4.654 C 3.897 4.916,3.943 5.230,4.089 5.455 C 4.134 5.524,4.531 5.939,4.971 6.377 C 5.844 7.245,5.885 7.277,6.193 7.320 C 6.519 7.366,6.802 7.272,7.039 7.039 C 7.266 6.817,7.366 6.515,7.320 6.192 C 7.277 5.885,7.245 5.843,6.377 4.971 C 5.939 4.531,5.524 4.134,5.455 4.089 C 5.225 3.939,4.896 3.896,4.632 3.981 M18.797 3.973 C 18.728 3.992,18.614 4.044,18.545 4.089 C 18.476 4.134,18.061 4.531,17.623 4.971 C 16.752 5.847,16.724 5.884,16.679 6.200 C 16.634 6.515,16.735 6.819,16.958 7.042 C 17.181 7.265,17.485 7.366,17.800 7.321 C 18.116 7.276,18.153 7.248,19.029 6.377 C 19.469 5.939,19.866 5.524,19.911 5.455 C 20.057 5.231,20.099 4.945,20.027 4.668 C 19.982 4.494,19.921 4.390,19.778 4.241 C 19.522 3.974,19.161 3.875,18.797 3.973 M11.424 7.035 C 10.314 7.163,9.269 7.670,8.470 8.470 C 7.521 9.419,7.008 10.656,7.008 12.000 C 7.008 13.344,7.521 14.581,8.470 15.530 C 9.419 16.479,10.656 16.992,12.000 16.992 C 13.777 16.992,15.389 16.071,16.306 14.534 C 17.023 13.333,17.191 11.799,16.752 10.464 C 16.496 9.683,16.104 9.044,15.530 8.470 C 14.719 7.658,13.683 7.160,12.540 7.033 C 12.286 7.004,11.680 7.005,11.424 7.035 M12.600 9.060 C 13.208 9.195,13.680 9.452,14.114 9.886 C 14.383 10.156,14.531 10.360,14.688 10.677 C 14.906 11.118,14.988 11.481,14.988 12.000 C 14.988 12.640,14.835 13.147,14.479 13.689 C 14.335 13.909,13.909 14.335,13.689 14.479 C 13.147 14.835,12.640 14.988,12.000 14.988 C 11.360 14.988,10.853 14.835,10.311 14.479 C 10.091 14.335,9.665 13.909,9.521 13.689 C 9.165 13.147,9.012 12.640,9.012 12.000 C 9.012 11.731,9.024 11.572,9.056 11.424 C 9.181 10.839,9.437 10.347,9.828 9.939 C 10.296 9.450,10.822 9.170,11.527 9.035 C 11.755 8.992,12.356 9.005,12.600 9.060 M1.872 11.016 C 1.678 11.045,1.601 11.074,1.452 11.173 C 1.290 11.281,1.175 11.416,1.087 11.606 C 1.027 11.733,1.020 11.775,1.020 12.000 C 1.020 12.225,1.027 12.267,1.087 12.394 C 1.175 12.583,1.290 12.719,1.451 12.827 C 1.708 12.997,1.700 12.996,3.000 12.996 C 4.300 12.996,4.292 12.997,4.549 12.827 C 4.710 12.719,4.825 12.583,4.913 12.394 C 4.973 12.267,4.980 12.225,4.980 12.000 C 4.980 11.775,4.973 11.733,4.913 11.606 C 4.825 11.417,4.710 11.281,4.549 11.174 C 4.299 11.008,4.310 11.009,3.096 11.002 C 2.495 10.999,1.945 11.005,1.872 11.016 M19.872 11.016 C 19.678 11.045,19.601 11.074,19.452 11.173 C 19.290 11.281,19.175 11.416,19.087 11.606 C 19.027 11.733,19.020 11.775,19.020 12.000 C 19.020 12.225,19.027 12.267,19.087 12.394 C 19.175 12.583,19.290 12.719,19.451 12.827 C 19.708 12.997,19.700 12.996,21.000 12.996 C 22.300 12.996,22.292 12.997,22.549 12.827 C 22.710 12.719,22.825 12.583,22.913 12.394 C 22.973 12.267,22.980 12.225,22.980 12.000 C 22.980 11.775,22.973 11.733,22.913 11.606 C 22.825 11.417,22.710 11.281,22.549 11.174 C 22.299 11.008,22.310 11.009,21.096 11.002 C 20.495 10.999,19.945 11.005,19.872 11.016 M6.177 16.680 C 5.887 16.723,5.834 16.765,4.971 17.623 C 4.531 18.061,4.134 18.476,4.089 18.545 C 3.896 18.842,3.887 19.261,4.070 19.572 C 4.136 19.685,4.321 19.868,4.441 19.939 C 4.730 20.111,5.167 20.098,5.455 19.911 C 5.524 19.866,5.939 19.469,6.377 19.029 C 7.245 18.157,7.277 18.115,7.320 17.808 C 7.365 17.488,7.265 17.180,7.042 16.958 C 6.817 16.733,6.500 16.631,6.177 16.680 M17.544 16.671 C 17.294 16.712,17.117 16.799,16.955 16.961 C 16.662 17.254,16.586 17.702,16.763 18.090 C 16.817 18.207,16.945 18.348,17.623 19.029 C 18.061 19.469,18.476 19.866,18.545 19.911 C 18.833 20.098,19.270 20.111,19.559 19.939 C 19.681 19.867,19.864 19.685,19.933 19.568 C 20.111 19.265,20.102 18.838,19.911 18.545 C 19.798 18.372,18.254 16.842,18.132 16.782 C 17.954 16.694,17.699 16.646,17.544 16.671 M11.724 19.040 C 11.486 19.119,11.304 19.255,11.173 19.451 C 11.003 19.708,11.004 19.700,11.004 21.000 C 11.004 22.300,11.003 22.292,11.173 22.549 C 11.281 22.710,11.417 22.825,11.606 22.913 C 11.733 22.973,11.775 22.980,12.000 22.980 C 12.225 22.980,12.267 22.973,12.394 22.913 C 12.583 22.825,12.719 22.710,12.827 22.549 C 12.997 22.292,12.996 22.300,12.996 21.000 C 12.996 19.700,12.997 19.708,12.827 19.451 C 12.719 19.289,12.582 19.174,12.394 19.088 C 12.279 19.035,12.211 19.021,12.036 19.015 C 11.903 19.011,11.783 19.021,11.724 19.040 " stroke="none" fill-rule="evenodd"/></svg>